<svg xmlns="http://www.w3.org/2000/svg" xmlns:v="https://svgstorm.com"
viewBox = "0 0 1679 744"
width="1679"
height="744">
<g fill="None" fill-opacity="0.0" stroke="#007F10" stroke-opacity="1.00" stroke-width="0.3"><path d="
M 0.00 744.00 
L 1679.00 744.00
L 1679.00 0.00
L 0.00 0.00
L 0.00 744.00
M 1663.00 16.00 
C 1663.00 189.00 1663.00 362.00 1663.00 535.00
C 1475.01 535.00 1286.99 535.00 1099.00 535.00
C 1099.00 540.67 1099.00 546.33 1099.00 552.00
C 1287.00 552.00 1475.00 552.00 1663.00 552.00
C 1663.00 610.67 1663.00 669.33 1663.00 728.00
C 1114.00 728.01 565.00 727.99 16.00 728.00
C 16.00 669.33 16.00 610.67 16.00 552.00
C 203.67 552.00 391.33 552.00 579.00 552.00
C 579.00 546.33 579.00 540.67 579.00 535.00
C 391.34 535.00 203.67 535.00 16.00 535.00
C 16.00 362.00 16.00 189.00 16.00 16.00
C 565.01 16.00 1113.99 16.00 1663.00 16.00 Z"/>
</g>
<g fill="None" fill-opacity="0.0" stroke="#000000" stroke-opacity="1.00" stroke-width="0.3"><path d="
M 1663.00 16.00 
C 1113.99 16.00 565.01 16.00 16.00 16.00
C 16.00 189.00 16.00 362.00 16.00 535.00
C 203.67 535.00 391.34 535.00 579.00 535.00
C 579.00 540.67 579.00 546.33 579.00 552.00
C 391.33 552.00 203.67 552.00 16.00 552.00
C 16.00 610.67 16.00 669.33 16.00 728.00
C 565.00 727.99 1114.00 728.01 1663.00 728.00
C 1663.00 669.33 1663.00 610.67 1663.00 552.00
C 1475.00 552.00 1287.00 552.00 1099.00 552.00
C 1099.00 546.33 1099.00 540.67 1099.00 535.00
C 1286.99 535.00 1475.01 535.00 1663.00 535.00
C 1663.00 362.00 1663.00 189.00 1663.00 16.00
M 295.00 178.00 
C 294.01 184.54 283.34 191.71 290.30 198.70 C 297.27 205.68 299.47 210.29 305.30 216.70 C 311.13 223.11 314.97 227.61 320.25 233.75 C 325.52 239.89 330.23 245.69 335.30 251.70 C 340.37 257.71 345.25 262.82 350.25 268.75 C 355.24 274.68 360.40 280.77 365.25 286.75 C 370.11 292.72 375.26 297.89 380.25 303.75 C 385.24 309.62 390.33 315.85 395.25 321.75 C 400.17 327.66 405.25 332.88 410.25 338.75 C 415.24 344.62 419.87 351.10 425.25 356.75 C 430.62 362.41 434.70 369.24 441.00 374.00
C 442.92 364.79 441.76 355.74 442.00 346.00 C 442.24 336.26 441.83 325.89 442.00 316.00 C 442.17 306.11 441.79 295.97 442.00 286.00 C 442.21 276.03 441.61 266.04 442.00 256.00 C 442.39 245.96 441.17 236.13 442.00 226.00 C 442.83 215.87 440.58 207.03 441.01 196.99 C 441.44 186.95 431.13 186.18 430.00 178.00
C 446.00 178.00 462.00 178.00 478.00 178.00
C 476.78 186.65 465.41 188.50 467.00 200.00 C 468.59 211.50 466.30 221.77 467.00 233.00 C 467.70 244.23 466.73 254.88 467.00 266.00 C 467.27 277.12 466.98 287.91 467.00 299.00 C 467.02 310.09 467.22 320.89 467.00 332.00 C 466.78 343.11 467.61 353.78 467.00 365.00 C 466.39 376.22 468.40 386.53 467.00 398.00 C 465.60 409.47 475.91 411.97 479.00 420.00
C 470.50 422.80 454.25 419.68 446.00 421.00 C 437.75 422.32 415.74 421.30 425.03 414.03 C 434.32 406.75 427.24 400.09 421.75 393.25 C 416.27 386.41 411.02 381.73 405.75 375.25 C 400.48 368.77 395.43 363.06 390.25 356.75 C 385.06 350.45 379.54 344.89 374.25 338.75 C 368.96 332.61 363.97 326.39 358.75 320.25 C 353.53 314.11 348.08 308.31 342.75 302.25 C 337.43 296.19 332.63 289.78 327.25 283.75 C 321.87 277.73 316.61 271.80 311.25 265.75 C 305.89 259.70 301.12 253.33 295.75 247.25 C 290.39 241.17 285.02 235.47 279.75 229.25 C 274.48 223.03 268.76 216.59 264.00 210.00
C 260.04 217.56 262.46 227.75 262.00 237.00 C 261.54 246.25 262.17 256.57 262.00 266.00 C 261.83 275.43 262.00 285.55 262.00 295.00 C 262.00 304.45 261.83 314.67 262.00 324.00 C 262.17 333.33 261.55 344.01 262.00 353.00 C 262.45 361.99 260.96 373.81 262.00 382.00 C 263.04 390.19 259.32 403.08 263.93 409.07 C 268.53 415.06 280.18 419.23 267.00 421.00 C 253.82 422.77 250.61 419.46 238.00 421.00 C 225.39 422.54 222.93 417.23 232.08 412.08 C 241.22 406.93 235.37 395.50 237.00 387.00 C 238.63 378.50 236.29 367.12 237.00 358.00 C 237.71 348.88 236.73 338.38 237.00 329.00 C 237.27 319.61 237.00 309.46 237.00 300.00 C 237.00 290.54 237.27 280.40 237.00 271.00 C 236.73 261.60 237.72 251.15 237.00 242.00 C 236.28 232.85 238.64 221.56 237.00 213.00 C 235.36 204.44 241.42 193.79 233.25 187.75 C 225.07 181.72 223.69 177.51 236.00 178.00 C 248.31 178.49 253.89 177.75 265.00 178.00 C 276.11 178.25 284.17 177.81 295.00 178.00
M 651.00 221.00 
C 649.30 227.09 639.81 232.58 644.32 240.68 C 648.84 248.78 649.13 253.78 652.98 261.02 C 656.82 268.27 658.76 273.82 662.31 280.69 C 665.85 287.57 667.93 293.92 671.31 300.69 C 674.68 307.47 677.74 314.29 680.92 321.08 C 684.11 327.86 686.67 334.35 689.92 341.08 C 693.18 347.80 696.03 354.12 698.98 361.03 C 701.92 367.93 705.39 373.54 708.31 380.70 C 711.22 387.85 714.40 392.64 717.77 400.23 C 721.14 407.82 725.80 410.55 733.03 414.97 C 740.25 419.40 724.13 423.46 716.00 421.00 C 707.87 418.54 696.23 423.86 687.00 421.00 C 677.77 418.14 694.58 412.54 691.02 405.98 C 687.47 399.41 685.52 392.57 682.08 385.92 C 678.63 379.27 675.55 372.02 673.00 365.00
C 637.67 365.00 602.33 365.00 567.00 365.00
C 563.78 373.58 559.86 383.57 555.70 391.69 C 551.53 399.82 544.97 413.59 559.00 415.00
C 560.29 423.84 544.31 422.02 538.00 421.00 C 531.69 419.98 515.65 424.24 510.78 420.22 C 505.91 416.20 521.04 412.05 523.25 407.25 C 525.45 402.44 530.69 394.66 532.77 388.77 C 534.85 382.89 538.96 375.75 541.77 369.77 C 544.59 363.79 546.76 356.96 549.92 350.92 C 553.09 344.89 555.92 338.10 558.92 331.92 C 561.93 325.74 564.31 319.56 567.31 313.31 C 570.30 307.05 573.22 300.62 576.31 294.31 C 579.39 287.99 581.80 281.28 584.93 274.93 C 588.05 268.57 590.21 263.11 593.77 256.77 C 597.33 250.43 597.87 243.21 601.78 236.78 C 605.68 230.35 587.38 223.73 595.08 221.08 C 602.79 218.44 614.52 222.31 623.00 221.00 C 631.48 219.69 642.31 221.99 651.00 221.00
M 876.00 371.00 
C 878.81 363.57 882.77 356.51 886.31 349.31 C 889.84 342.10 893.44 335.20 896.92 327.92 C 900.41 320.65 904.15 314.12 907.77 306.77 C 911.39 299.42 914.69 292.12 918.77 284.77 C 922.85 277.42 924.67 270.87 929.31 263.31 C 933.94 255.74 934.33 250.14 939.92 241.92 C 945.52 233.71 936.30 227.95 934.00 221.00
C 943.25 220.71 949.45 221.38 959.00 221.00 C 968.55 220.62 974.52 221.71 985.00 221.00 C 995.48 220.29 996.21 225.07 987.75 229.75 C 979.30 234.44 985.44 244.37 984.00 252.00 C 982.56 259.63 984.66 269.83 984.00 278.00 C 983.34 286.17 984.33 295.63 984.00 304.00 C 983.67 312.37 984.21 321.63 984.00 330.00 C 983.79 338.37 984.23 347.82 984.00 356.00 C 983.77 364.18 984.41 374.34 984.00 382.00 C 983.59 389.66 984.51 401.05 984.78 407.22 C 985.04 413.39 999.94 417.68 992.92 420.92 C 985.89 424.15 974.11 419.91 967.00 421.00 C 959.89 422.09 946.28 423.69 947.00 415.00
C 958.71 413.52 958.20 402.39 958.00 392.00 C 957.80 381.61 958.18 368.94 958.00 358.00 C 957.82 347.06 958.27 334.09 958.00 323.00 C 957.73 311.92 958.55 299.95 958.00 289.00 C 957.45 278.05 960.06 264.42 956.00 256.00
C 947.39 274.18 937.79 292.48 928.70 310.69 C 919.60 328.91 910.68 347.26 901.23 365.23 C 891.78 383.20 883.74 403.36 872.00 419.00
C 844.88 364.32 817.71 308.87 789.00 255.00
C 789.08 266.01 788.90 276.99 789.00 288.00 C 789.10 299.01 788.80 309.98 789.00 321.00 C 789.20 332.02 788.58 342.96 789.00 354.00 C 789.42 365.04 788.08 375.91 789.00 387.00 C 789.92 398.09 784.73 406.97 795.70 414.30 C 806.66 421.64 785.63 420.99 778.00 421.00 C 770.37 421.01 749.48 421.68 760.22 414.22 C 770.97 406.77 766.24 399.18 767.00 388.00 C 767.76 376.82 766.71 365.13 767.00 354.00 C 767.29 342.87 767.01 332.04 767.00 321.00 C 766.99 309.96 767.32 298.99 767.00 288.00 C 766.68 277.01 767.84 265.92 767.00 255.00 C 766.16 244.08 771.27 235.40 760.77 228.23 C 750.27 221.06 767.54 219.69 778.00 221.00 C 788.46 222.31 798.91 219.81 811.00 221.00 C 823.09 222.19 805.50 230.22 808.93 238.07 C 812.35 245.93 815.88 252.71 819.77 260.23 C 823.66 267.75 827.06 275.63 830.92 283.08 C 834.79 290.52 838.32 297.59 841.92 305.08 C 845.53 312.56 849.50 319.68 852.92 327.08 C 856.34 334.48 859.70 342.08 863.77 349.23 C 867.84 356.38 869.95 365.30 876.00 371.00
M 1203.00 317.00 
C 1209.76 319.55 1216.22 323.26 1221.70 328.30 C 1227.18 333.35 1230.75 339.65 1233.32 346.68 C 1235.89 353.71 1237.17 366.19 1236.00 374.00 C 1234.83 381.81 1231.85 389.10 1227.25 395.25 C 1222.64 401.39 1218.42 406.49 1211.75 410.75 C 1205.09 415.02 1197.63 416.93 1189.33 418.33 C 1181.03 419.73 1171.15 420.41 1161.99 420.99 C 1152.83 421.58 1141.66 420.95 1132.00 421.00 C 1122.34 421.05 1111.95 421.44 1102.00 421.00 C 1092.05 420.56 1081.05 422.16 1071.00 421.00 C 1060.95 419.84 1051.09 423.76 1041.00 421.00 C 1030.91 418.24 1047.74 413.59 1047.99 405.99 C 1048.24 398.39 1049.60 386.06 1049.00 377.00 C 1048.40 367.94 1049.42 356.59 1049.00 347.00 C 1048.58 337.41 1049.51 325.69 1049.00 316.00 C 1048.49 306.31 1049.96 295.46 1049.00 286.00 C 1048.04 276.54 1051.06 264.88 1049.00 256.00 C 1046.94 247.12 1054.85 235.94 1045.25 229.75 C 1035.64 223.57 1037.76 220.45 1050.00 221.00 C 1062.24 221.55 1069.95 220.77 1081.00 221.00 C 1092.05 221.23 1100.65 220.97 1111.00 221.00 C 1121.35 221.03 1131.12 221.14 1141.00 221.00 C 1150.88 220.86 1161.17 221.07 1170.22 221.78 C 1179.27 222.49 1188.28 222.94 1196.02 225.98 C 1203.77 229.01 1209.41 232.05 1215.25 237.75 C 1221.09 243.45 1223.69 248.76 1226.78 256.22 C 1229.87 263.69 1229.87 273.96 1229.00 282.00 C 1228.14 290.04 1224.04 296.05 1219.25 302.25 C 1214.46 308.45 1207.48 311.53 1203.00 317.00
M 1394.00 221.00 
C 1391.46 227.55 1382.24 233.02 1387.32 241.68 C 1392.41 250.34 1393.51 256.21 1397.77 264.23 C 1402.03 272.25 1403.90 279.41 1407.92 287.08 C 1411.95 294.75 1414.71 302.06 1418.31 309.69 C 1421.90 317.33 1425.47 324.59 1428.77 332.23 C 1432.07 339.86 1436.02 347.13 1439.31 354.69 C 1442.59 362.26 1446.14 369.87 1449.77 377.23 C 1453.40 384.59 1456.30 392.74 1460.30 399.70 C 1464.31 406.66 1468.95 414.93 1478.00 415.00
C 1477.63 424.41 1465.63 421.22 1457.00 421.00 C 1448.37 420.78 1439.68 422.51 1430.00 421.00 C 1420.32 419.49 1437.45 411.66 1433.67 405.33 C 1429.89 399.00 1428.94 393.05 1425.23 386.77 C 1421.52 380.50 1421.21 374.50 1416.70 368.31 C 1412.18 362.11 1400.11 365.67 1392.00 365.00 C 1383.89 364.33 1373.64 365.31 1365.00 365.00 C 1356.36 364.69 1346.93 365.16 1338.00 365.00 C 1329.07 364.84 1319.03 365.12 1310.00 365.00
C 1309.41 373.08 1300.31 380.85 1299.70 388.69 C 1299.08 396.54 1284.70 405.76 1296.08 412.92 C 1307.47 420.07 1292.05 423.31 1282.00 421.00 C 1271.95 418.69 1254.77 426.88 1253.00 415.00
C 1260.14 414.91 1265.16 409.21 1268.30 403.30 C 1271.45 397.40 1274.41 391.17 1276.98 384.98 C 1279.54 378.78 1283.40 373.05 1285.77 366.77 C 1288.14 360.49 1291.63 354.52 1294.31 348.31 C 1296.98 342.09 1299.97 335.98 1302.77 329.77 C 1305.57 323.57 1308.24 317.46 1311.31 311.31 C 1314.37 305.15 1317.10 298.20 1319.93 291.93 C 1322.75 285.65 1325.79 279.95 1328.77 273.77 C 1331.75 267.59 1333.80 261.08 1336.98 254.98 C 1340.15 248.87 1342.40 242.28 1344.93 235.93 C 1347.45 229.57 1329.92 223.35 1339.03 221.03 C 1348.13 218.71 1356.84 222.15 1366.00 221.00 C 1375.16 219.85 1384.80 221.86 1394.00 221.00
M 705.00 503.00 
C 700.99 508.24 700.39 518.10 694.00 520.00
C 693.95 509.63 678.45 506.35 667.99 506.01 C 657.54 505.67 643.38 505.70 635.75 515.75 C 628.12 525.81 638.73 537.81 651.01 536.99 C 663.29 536.17 678.42 537.79 690.02 539.98 C 701.63 542.17 707.78 554.44 705.67 565.67 C 703.56 576.90 694.29 582.10 683.98 585.98 C 673.66 589.85 657.82 589.00 646.98 587.02 C 636.13 585.04 626.44 575.99 617.00 580.00
C 616.72 573.81 623.67 568.13 626.00 562.00
C 630.59 572.14 643.76 579.69 656.22 579.78 C 668.69 579.87 684.63 582.36 692.77 568.77 C 700.91 555.18 683.14 546.40 670.00 548.00 C 656.86 549.60 640.40 547.19 629.75 540.25 C 619.11 533.30 619.55 515.62 629.25 507.25 C 638.95 498.88 653.89 497.09 667.00 497.00 C 680.11 496.91 693.06 505.73 705.00 503.00
M 910.00 503.00 
C 905.99 508.24 905.39 518.10 899.00 520.00
C 898.95 509.63 883.44 506.35 872.99 506.01 C 862.54 505.67 848.38 505.70 840.75 515.75 C 833.12 525.81 843.73 537.81 856.01 536.99 C 868.29 536.17 883.42 537.79 895.02 539.98 C 906.63 542.17 912.78 554.44 910.67 565.67 C 908.56 576.90 899.29 582.10 888.98 585.98 C 878.66 589.85 862.82 589.00 851.98 587.02 C 841.13 585.04 831.44 575.99 822.00 580.00
C 821.72 573.81 828.67 568.13 831.00 562.00
C 835.59 572.14 848.76 579.69 861.22 579.78 C 873.69 579.87 889.64 582.37 897.77 568.77 C 905.90 555.17 888.14 546.40 875.00 548.00 C 861.86 549.60 845.40 547.19 834.75 540.25 C 824.11 533.30 824.55 515.62 834.25 507.25 C 843.95 498.87 858.89 497.09 872.00 497.00 C 885.11 496.91 898.06 505.73 910.00 503.00
M 740.00 499.00 
C 728.89 514.65 738.75 530.84 735.00 551.00 C 731.25 571.16 745.22 580.01 764.00 580.00 C 782.78 579.99 797.51 572.42 794.00 552.00 C 790.49 531.58 799.97 514.93 789.00 499.00
C 795.67 499.00 802.33 499.00 809.00 499.00
C 800.21 509.64 804.53 533.39 804.00 548.00 C 803.47 562.61 804.19 580.91 787.77 585.77 C 771.35 590.63 756.47 590.67 739.98 586.02 C 723.48 581.38 723.89 563.76 723.00 549.00 C 722.11 534.24 727.09 509.83 718.00 499.00
C 725.33 499.00 732.67 499.00 740.00 499.00
M 947.00 499.00 
C 943.19 503.37 941.13 507.70 942.00 515.00 C 942.87 522.30 941.35 529.69 942.00 537.00
C 961.00 537.00 980.00 537.00 999.00 537.00
C 999.66 529.80 998.12 523.26 999.00 516.00 C 999.88 508.74 998.17 503.31 994.00 499.00
C 1001.33 499.00 1008.67 499.00 1016.00 499.00
C 1007.88 509.99 1011.00 528.45 1011.00 543.00 C 1011.00 557.55 1007.88 576.01 1016.00 587.00
C 1008.67 587.00 1001.34 587.00 994.00 587.00
C 1003.28 577.66 997.35 559.59 999.00 546.00
C 980.00 546.00 961.00 546.00 942.00 546.00
C 941.46 553.68 942.72 561.32 942.00 569.00 C 941.28 576.68 942.41 582.47 947.00 587.00
C 939.67 587.00 932.33 587.00 925.00 587.00
C 933.14 576.56 930.00 557.51 930.00 543.00 C 930.00 528.49 933.16 509.46 925.00 499.00
C 932.33 499.00 939.67 499.00 947.00 499.00
M 1056.00 499.00 
C 1048.02 510.23 1051.00 528.36 1051.00 543.00 C 1051.00 557.64 1048.02 575.76 1056.00 587.00
C 1049.00 587.00 1042.00 587.00 1035.00 587.00
C 1042.97 575.77 1040.00 557.64 1040.00 543.00 C 1040.00 528.36 1042.98 510.25 1035.00 499.00
C 1042.00 499.00 1049.00 499.00 1056.00 499.00 Z"/>
</g>
<g fill="None" fill-opacity="0.0" stroke="#007F10" stroke-opacity="1.00" stroke-width="0.3"><path d="
M 295.00 178.00 
C 284.17 177.81 276.11 178.25 265.00 178.00 C 253.89 177.75 248.31 178.49 236.00 178.00 C 223.69 177.51 225.07 181.72 233.25 187.75 C 241.42 193.79 235.36 204.44 237.00 213.00 C 238.64 221.56 236.28 232.85 237.00 242.00 C 237.72 251.15 236.73 261.60 237.00 271.00 C 237.27 280.40 237.00 290.54 237.00 300.00 C 237.00 309.46 237.27 319.61 237.00 329.00 C 236.73 338.38 237.71 348.88 237.00 358.00 C 236.29 367.12 238.63 378.50 237.00 387.00 C 235.37 395.50 241.22 406.93 232.08 412.08 C 222.93 417.23 225.39 422.54 238.00 421.00 C 250.61 419.46 253.82 422.77 267.00 421.00 C 280.18 419.23 268.53 415.06 263.93 409.07 C 259.32 403.08 263.04 390.19 262.00 382.00 C 260.96 373.81 262.45 361.99 262.00 353.00 C 261.55 344.01 262.17 333.33 262.00 324.00 C 261.83 314.67 262.00 304.45 262.00 295.00 C 262.00 285.55 261.83 275.43 262.00 266.00 C 262.17 256.57 261.54 246.25 262.00 237.00 C 262.46 227.75 260.04 217.56 264.00 210.00
C 268.76 216.59 274.48 223.03 279.75 229.25 C 285.02 235.47 290.39 241.17 295.75 247.25 C 301.12 253.33 305.89 259.70 311.25 265.75 C 316.61 271.80 321.87 277.73 327.25 283.75 C 332.63 289.78 337.43 296.19 342.75 302.25 C 348.08 308.31 353.53 314.11 358.75 320.25 C 363.97 326.39 368.96 332.61 374.25 338.75 C 379.54 344.89 385.06 350.45 390.25 356.75 C 395.43 363.06 400.48 368.77 405.75 375.25 C 411.02 381.73 416.27 386.41 421.75 393.25 C 427.24 400.09 434.32 406.75 425.03 414.03 C 415.74 421.30 437.75 422.32 446.00 421.00 C 454.25 419.68 470.50 422.80 479.00 420.00
C 475.91 411.97 465.60 409.47 467.00 398.00 C 468.40 386.53 466.39 376.22 467.00 365.00 C 467.61 353.78 466.78 343.11 467.00 332.00 C 467.22 320.89 467.02 310.09 467.00 299.00 C 466.98 287.91 467.27 277.12 467.00 266.00 C 466.73 254.88 467.70 244.23 467.00 233.00 C 466.30 221.77 468.59 211.50 467.00 200.00 C 465.41 188.50 476.78 186.65 478.00 178.00
C 462.00 178.00 446.00 178.00 430.00 178.00
C 431.13 186.18 441.44 186.95 441.01 196.99 C 440.58 207.03 442.83 215.87 442.00 226.00 C 441.17 236.13 442.39 245.96 442.00 256.00 C 441.61 266.04 442.21 276.03 442.00 286.00 C 441.79 295.97 442.17 306.11 442.00 316.00 C 441.83 325.89 442.24 336.26 442.00 346.00 C 441.76 355.74 442.92 364.79 441.00 374.00
C 434.70 369.24 430.62 362.41 425.25 356.75 C 419.87 351.10 415.24 344.62 410.25 338.75 C 405.25 332.88 400.17 327.66 395.25 321.75 C 390.33 315.85 385.24 309.62 380.25 303.75 C 375.26 297.89 370.11 292.72 365.25 286.75 C 360.40 280.77 355.24 274.68 350.25 268.75 C 345.25 262.82 340.37 257.71 335.30 251.70 C 330.23 245.69 325.52 239.89 320.25 233.75 C 314.97 227.61 311.13 223.11 305.30 216.70 C 299.47 210.29 297.27 205.68 290.30 198.70 C 283.34 191.71 294.01 184.54 295.00 178.00 Z"/>
</g>
<g fill="None" fill-opacity="0.0" stroke="#007F10" stroke-opacity="1.00" stroke-width="0.3"><path d="
M 651.00 221.00 
C 642.31 221.99 631.48 219.69 623.00 221.00 C 614.52 222.31 602.79 218.44 595.08 221.08 C 587.38 223.73 605.68 230.35 601.78 236.78 C 597.87 243.21 597.33 250.43 593.77 256.77 C 590.21 263.11 588.05 268.57 584.93 274.93 C 581.80 281.28 579.39 287.99 576.31 294.31 C 573.22 300.62 570.30 307.05 567.31 313.31 C 564.31 319.56 561.93 325.74 558.92 331.92 C 555.92 338.10 553.09 344.89 549.92 350.92 C 546.76 356.96 544.59 363.79 541.77 369.77 C 538.96 375.75 534.85 382.89 532.77 388.77 C 530.69 394.66 525.45 402.44 523.25 407.25 C 521.04 412.05 505.91 416.20 510.78 420.22 C 515.65 424.24 531.69 419.98 538.00 421.00 C 544.31 422.02 560.29 423.84 559.00 415.00
C 544.97 413.59 551.53 399.82 555.70 391.69 C 559.86 383.57 563.78 373.58 567.00 365.00
C 602.33 365.00 637.67 365.00 673.00 365.00
C 675.55 372.02 678.63 379.27 682.08 385.92 C 685.52 392.57 687.47 399.41 691.02 405.98 C 694.58 412.54 677.77 418.14 687.00 421.00 C 696.23 423.86 707.87 418.54 716.00 421.00 C 724.13 423.46 740.25 419.40 733.03 414.97 C 725.80 410.55 721.14 407.82 717.77 400.23 C 714.40 392.64 711.22 387.85 708.31 380.70 C 705.39 373.54 701.92 367.93 698.98 361.03 C 696.03 354.12 693.18 347.80 689.92 341.08 C 686.67 334.35 684.11 327.86 680.92 321.08 C 677.74 314.29 674.68 307.47 671.31 300.69 C 667.93 293.92 665.85 287.57 662.31 280.69 C 658.76 273.82 656.82 268.27 652.98 261.02 C 649.13 253.78 648.84 248.78 644.32 240.68 C 639.81 232.58 649.30 227.09 651.00 221.00
M 621.00 249.00 
C 635.15 280.96 650.38 312.55 663.00 345.00
C 634.33 345.00 605.67 345.00 577.00 345.00
C 591.24 312.99 604.56 279.68 621.00 249.00 Z"/>
</g>
<g fill="None" fill-opacity="0.0" stroke="#007F10" stroke-opacity="1.00" stroke-width="0.3"><path d="
M 876.00 371.00 
C 869.95 365.30 867.84 356.38 863.77 349.23 C 859.70 342.08 856.34 334.48 852.92 327.08 C 849.50 319.68 845.53 312.56 841.92 305.08 C 838.32 297.59 834.79 290.52 830.92 283.08 C 827.06 275.63 823.66 267.75 819.77 260.23 C 815.88 252.71 812.35 245.93 808.93 238.07 C 805.50 230.22 823.09 222.19 811.00 221.00 C 798.91 219.81 788.46 222.31 778.00 221.00 C 767.54 219.69 750.27 221.06 760.77 228.23 C 771.27 235.40 766.16 244.08 767.00 255.00 C 767.84 265.92 766.68 277.01 767.00 288.00 C 767.32 298.99 766.99 309.96 767.00 321.00 C 767.01 332.04 767.29 342.87 767.00 354.00 C 766.71 365.13 767.76 376.82 767.00 388.00 C 766.24 399.18 770.97 406.77 760.22 414.22 C 749.48 421.68 770.37 421.01 778.00 421.00 C 785.63 420.99 806.66 421.64 795.70 414.30 C 784.73 406.97 789.92 398.09 789.00 387.00 C 788.08 375.91 789.42 365.04 789.00 354.00 C 788.58 342.96 789.20 332.02 789.00 321.00 C 788.80 309.98 789.10 299.01 789.00 288.00 C 788.90 276.99 789.08 266.01 789.00 255.00
C 817.71 308.87 844.88 364.32 872.00 419.00
C 883.74 403.36 891.78 383.20 901.23 365.23 C 910.68 347.26 919.60 328.91 928.70 310.69 C 937.79 292.48 947.39 274.18 956.00 256.00
C 960.06 264.42 957.45 278.05 958.00 289.00 C 958.55 299.95 957.73 311.92 958.00 323.00 C 958.27 334.09 957.82 347.06 958.00 358.00 C 958.18 368.94 957.80 381.61 958.00 392.00 C 958.20 402.39 958.71 413.52 947.00 415.00
C 946.28 423.69 959.89 422.09 967.00 421.00 C 974.11 419.91 985.89 424.15 992.92 420.92 C 999.94 417.68 985.04 413.39 984.78 407.22 C 984.51 401.05 983.59 389.66 984.00 382.00 C 984.41 374.34 983.77 364.18 984.00 356.00 C 984.23 347.82 983.79 338.37 984.00 330.00 C 984.21 321.63 983.67 312.37 984.00 304.00 C 984.33 295.63 983.34 286.17 984.00 278.00 C 984.66 269.83 982.56 259.63 984.00 252.00 C 985.44 244.37 979.30 234.44 987.75 229.75 C 996.21 225.07 995.48 220.29 985.00 221.00 C 974.52 221.71 968.55 220.62 959.00 221.00 C 949.45 221.38 943.25 220.71 934.00 221.00
C 936.30 227.95 945.52 233.71 939.92 241.92 C 934.33 250.14 933.94 255.74 929.31 263.31 C 924.67 270.87 922.85 277.42 918.77 284.77 C 914.69 292.12 911.39 299.42 907.77 306.77 C 904.15 314.12 900.41 320.65 896.92 327.92 C 893.44 335.20 889.84 342.10 886.31 349.31 C 882.77 356.51 878.81 363.57 876.00 371.00 Z"/>
</g>
<g fill="None" fill-opacity="0.0" stroke="#007F10" stroke-opacity="1.00" stroke-width="0.3"><path d="
M 1203.00 317.00 
C 1207.48 311.53 1214.46 308.45 1219.25 302.25 C 1224.04 296.05 1228.14 290.04 1229.00 282.00 C 1229.87 273.96 1229.87 263.69 1226.78 256.22 C 1223.69 248.76 1221.09 243.45 1215.25 237.75 C 1209.41 232.05 1203.77 229.01 1196.02 225.98 C 1188.28 222.94 1179.27 222.49 1170.22 221.78 C 1161.17 221.07 1150.88 220.86 1141.00 221.00 C 1131.12 221.14 1121.35 221.03 1111.00 221.00 C 1100.65 220.97 1092.05 221.23 1081.00 221.00 C 1069.95 220.77 1062.24 221.55 1050.00 221.00 C 1037.76 220.45 1035.64 223.57 1045.25 229.75 C 1054.85 235.94 1046.94 247.12 1049.00 256.00 C 1051.06 264.88 1048.04 276.54 1049.00 286.00 C 1049.96 295.46 1048.49 306.31 1049.00 316.00 C 1049.51 325.69 1048.58 337.41 1049.00 347.00 C 1049.42 356.59 1048.40 367.94 1049.00 377.00 C 1049.60 386.06 1048.24 398.39 1047.99 405.99 C 1047.74 413.59 1030.91 418.24 1041.00 421.00 C 1051.09 423.76 1060.95 419.84 1071.00 421.00 C 1081.05 422.16 1092.05 420.56 1102.00 421.00 C 1111.95 421.44 1122.34 421.05 1132.00 421.00 C 1141.66 420.95 1152.83 421.58 1161.99 420.99 C 1171.15 420.41 1181.03 419.73 1189.33 418.33 C 1197.63 416.93 1205.09 415.02 1211.75 410.75 C 1218.42 406.49 1222.64 401.39 1227.25 395.25 C 1231.85 389.10 1234.83 381.81 1236.00 374.00 C 1237.17 366.19 1235.89 353.71 1233.32 346.68 C 1230.75 339.65 1227.18 333.35 1221.70 328.30 C 1216.22 323.26 1209.76 319.55 1203.00 317.00
M 1074.00 241.00 
C 1085.48 241.02 1097.59 240.98 1109.00 241.00 C 1120.41 241.02 1133.92 240.96 1145.00 241.00 C 1156.08 241.04 1169.40 240.22 1179.02 242.98 C 1188.65 245.73 1195.09 249.41 1200.75 257.25 C 1206.41 265.09 1206.44 278.39 1203.02 287.02 C 1199.61 295.65 1193.61 300.14 1184.31 303.31 C 1175.00 306.47 1162.49 306.00 1151.78 306.78 C 1141.07 307.56 1127.28 307.17 1116.00 307.00 C 1104.72 306.83 1091.37 307.91 1080.00 307.00 C 1068.63 306.09 1075.45 286.87 1074.00 277.00 C 1072.55 267.13 1075.09 251.40 1074.00 241.00
M 1167.00 326.00 
C 1175.33 326.81 1184.66 328.80 1192.23 332.77 C 1199.80 336.74 1205.22 341.15 1208.77 349.23 C 1212.32 357.31 1213.11 368.83 1210.07 377.07 C 1207.04 385.31 1203.13 391.31 1194.92 394.92 C 1186.72 398.53 1178.58 400.96 1169.00 401.00 C 1159.42 401.03 1145.65 401.53 1136.00 401.00 C 1126.35 400.47 1111.81 402.45 1103.00 401.00 C 1094.19 399.55 1076.35 406.14 1074.01 396.99 C 1071.67 387.84 1074.74 375.07 1074.00 365.00 C 1073.26 354.93 1073.77 342.42 1074.00 332.00 C 1074.23 321.58 1091.84 326.64 1101.00 326.00 C 1110.16 325.36 1124.13 325.87 1134.00 326.00 C 1143.87 326.13 1156.02 324.94 1166.00 326.00 Z"/>
</g>
<g fill="None" fill-opacity="0.0" stroke="#007F10" stroke-opacity="1.00" stroke-width="0.3"><path d="
M 1394.00 221.00 
C 1384.80 221.86 1375.16 219.85 1366.00 221.00 C 1356.84 222.15 1348.13 218.71 1339.03 221.03 C 1329.92 223.35 1347.45 229.57 1344.93 235.93 C 1342.40 242.28 1340.15 248.87 1336.98 254.98 C 1333.80 261.08 1331.75 267.59 1328.77 273.77 C 1325.79 279.95 1322.75 285.65 1319.93 291.93 C 1317.10 298.20 1314.37 305.15 1311.31 311.31 C 1308.24 317.46 1305.57 323.57 1302.77 329.77 C 1299.97 335.98 1296.98 342.09 1294.31 348.31 C 1291.63 354.52 1288.14 360.49 1285.77 366.77 C 1283.40 373.05 1279.54 378.78 1276.98 384.98 C 1274.41 391.17 1271.45 397.40 1268.30 403.30 C 1265.16 409.21 1260.14 414.91 1253.00 415.00
C 1254.77 426.88 1271.95 418.69 1282.00 421.00 C 1292.05 423.31 1307.47 420.07 1296.08 412.92 C 1284.70 405.76 1299.08 396.54 1299.70 388.69 C 1300.31 380.85 1309.41 373.08 1310.00 365.00
C 1319.03 365.12 1329.07 364.84 1338.00 365.00 C 1346.93 365.16 1356.36 364.69 1365.00 365.00 C 1373.64 365.31 1383.89 364.33 1392.00 365.00 C 1400.11 365.67 1412.18 362.11 1416.70 368.31 C 1421.21 374.50 1421.52 380.50 1425.23 386.77 C 1428.94 393.05 1429.89 399.00 1433.67 405.33 C 1437.45 411.66 1420.32 419.49 1430.00 421.00 C 1439.68 422.51 1448.37 420.78 1457.00 421.00 C 1465.63 421.22 1477.63 424.41 1478.00 415.00
C 1468.95 414.93 1464.31 406.66 1460.30 399.70 C 1456.30 392.74 1453.40 384.59 1449.77 377.23 C 1446.14 369.87 1442.59 362.26 1439.31 354.69 C 1436.02 347.13 1432.07 339.86 1428.77 332.23 C 1425.47 324.59 1421.90 317.33 1418.31 309.69 C 1414.71 302.06 1411.95 294.75 1407.92 287.08 C 1403.90 279.41 1402.03 272.25 1397.77 264.23 C 1393.51 256.21 1392.41 250.34 1387.32 241.68 C 1382.24 233.02 1391.46 227.55 1394.00 221.00
M 1406.00 345.00 
C 1377.34 345.00 1348.66 345.00 1320.00 345.00
C 1332.75 312.63 1349.19 281.42 1362.00 249.00
C 1371.86 262.18 1377.44 280.30 1384.92 296.08 C 1392.41 311.85 1399.66 328.76 1406.00 345.00 Z"/>
</g>
<g fill="None" fill-opacity="0.0" stroke="#000000" stroke-opacity="1.00" stroke-width="0.3"><path d="
M 1074.00 241.00 
C 1075.09 251.40 1072.55 267.13 1074.00 277.00 C 1075.45 286.87 1068.63 306.09 1080.00 307.00 C 1091.37 307.91 1104.72 306.83 1116.00 307.00 C 1127.28 307.17 1141.07 307.56 1151.78 306.78 C 1162.49 306.00 1175.00 306.47 1184.31 303.31 C 1193.61 300.14 1199.61 295.65 1203.02 287.02 C 1206.44 278.39 1206.41 265.09 1200.75 257.25 C 1195.09 249.41 1188.65 245.73 1179.02 242.98 C 1169.40 240.22 1156.08 241.04 1145.00 241.00 C 1133.92 240.96 1120.41 241.02 1109.00 241.00 C 1097.59 240.98 1085.48 241.02 1074.00 241.00 Z"/>
</g>
<g fill="None" fill-opacity="0.0" stroke="#000000" stroke-opacity="1.00" stroke-width="0.3"><path d="
M 621.00 249.00 
C 604.56 279.68 591.24 312.99 577.00 345.00
C 605.67 345.00 634.33 345.00 663.00 345.00
C 650.38 312.55 635.15 280.96 621.00 249.00 Z"/>
</g>
<g fill="None" fill-opacity="0.0" stroke="#000000" stroke-opacity="1.00" stroke-width="0.3"><path d="
M 1406.00 345.00 
C 1399.66 328.76 1392.41 311.85 1384.92 296.08 C 1377.44 280.30 1371.86 262.18 1362.00 249.00
C 1349.19 281.42 1332.75 312.63 1320.00 345.00
C 1348.66 345.00 1377.34 345.00 1406.00 345.00 Z"/>
</g>
<g fill="None" fill-opacity="0.0" stroke="#000000" stroke-opacity="1.00" stroke-width="0.3"><path d="
M 1166.00 326.00 
C 1156.02 324.94 1143.87 326.13 1134.00 326.00 C 1124.13 325.87 1110.16 325.36 1101.00 326.00 C 1091.84 326.64 1074.23 321.58 1074.00 332.00 C 1073.77 342.42 1073.26 354.93 1074.00 365.00 C 1074.74 375.07 1071.67 387.84 1074.01 396.99 C 1076.35 406.14 1094.19 399.55 1103.00 401.00 C 1111.81 402.45 1126.35 400.47 1136.00 401.00 C 1145.65 401.53 1159.42 401.03 1169.00 401.00 C 1178.58 400.96 1186.72 398.53 1194.92 394.92 C 1203.13 391.31 1207.04 385.31 1210.07 377.07 C 1213.11 368.83 1212.32 357.31 1208.77 349.23 C 1205.22 341.15 1199.80 336.74 1192.23 332.77 C 1184.66 328.80 1175.33 326.81 1167.00 326.00 Z"/>
</g>
<g fill="None" fill-opacity="0.0" stroke="#007F10" stroke-opacity="1.00" stroke-width="0.3"><path d="
M 705.00 503.00 
C 693.06 505.73 680.11 496.91 667.00 497.00 C 653.89 497.09 638.95 498.88 629.25 507.25 C 619.55 515.62 619.11 533.30 629.75 540.25 C 640.40 547.19 656.86 549.60 670.00 548.00 C 683.14 546.40 700.91 555.18 692.77 568.77 C 684.63 582.36 668.69 579.87 656.22 579.78 C 643.76 579.69 630.59 572.14 626.00 562.00
C 623.67 568.13 616.72 573.81 617.00 580.00
C 626.44 575.99 636.13 585.04 646.98 587.02 C 657.82 589.00 673.66 589.85 683.98 585.98 C 694.29 582.10 703.56 576.90 705.67 565.67 C 707.78 554.44 701.63 542.17 690.02 539.98 C 678.42 537.79 663.29 536.17 651.01 536.99 C 638.73 537.81 628.12 525.81 635.75 515.75 C 643.38 505.70 657.54 505.67 667.99 506.01 C 678.45 506.35 693.95 509.63 694.00 520.00
C 700.39 518.10 700.99 508.24 705.00 503.00 Z"/>
</g>
<g fill="None" fill-opacity="0.0" stroke="#007F10" stroke-opacity="1.00" stroke-width="0.3"><path d="
M 910.00 503.00 
C 898.06 505.73 885.11 496.91 872.00 497.00 C 858.89 497.09 843.95 498.87 834.25 507.25 C 824.55 515.62 824.11 533.30 834.75 540.25 C 845.40 547.19 861.86 549.60 875.00 548.00 C 888.14 546.40 905.90 555.17 897.77 568.77 C 889.64 582.37 873.69 579.87 861.22 579.78 C 848.76 579.69 835.59 572.14 831.00 562.00
C 828.67 568.13 821.72 573.81 822.00 580.00
C 831.44 575.99 841.13 585.04 851.98 587.02 C 862.82 589.00 878.66 589.85 888.98 585.98 C 899.29 582.10 908.56 576.90 910.67 565.67 C 912.78 554.44 906.63 542.17 895.02 539.98 C 883.42 537.79 868.29 536.17 856.01 536.99 C 843.73 537.81 833.12 525.81 840.75 515.75 C 848.38 505.70 862.54 505.67 872.99 506.01 C 883.44 506.35 898.95 509.63 899.00 520.00
C 905.39 518.10 905.99 508.24 910.00 503.00 Z"/>
</g>
<g fill="None" fill-opacity="0.0" stroke="#007F10" stroke-opacity="1.00" stroke-width="0.3"><path d="
M 740.00 499.00 
C 732.67 499.00 725.33 499.00 718.00 499.00
C 727.09 509.83 722.11 534.24 723.00 549.00 C 723.89 563.76 723.48 581.38 739.98 586.02 C 756.47 590.67 771.35 590.63 787.77 585.77 C 804.19 580.91 803.47 562.61 804.00 548.00 C 804.53 533.39 800.21 509.64 809.00 499.00
C 802.33 499.00 795.67 499.00 789.00 499.00
C 799.97 514.93 790.49 531.58 794.00 552.00 C 797.51 572.42 782.78 579.99 764.00 580.00 C 745.22 580.01 731.25 571.16 735.00 551.00 C 738.75 530.84 728.89 514.65 740.00 499.00 Z"/>
</g>
<g fill="None" fill-opacity="0.0" stroke="#007F10" stroke-opacity="1.00" stroke-width="0.3"><path d="
M 947.00 499.00 
C 939.67 499.00 932.33 499.00 925.00 499.00
C 933.16 509.46 930.00 528.49 930.00 543.00 C 930.00 557.51 933.14 576.56 925.00 587.00
C 932.33 587.00 939.67 587.00 947.00 587.00
C 942.41 582.47 941.28 576.68 942.00 569.00 C 942.72 561.32 941.46 553.68 942.00 546.00
C 961.00 546.00 980.00 546.00 999.00 546.00
C 997.35 559.59 1003.28 577.66 994.00 587.00
C 1001.34 587.00 1008.67 587.00 1016.00 587.00
C 1007.88 576.01 1011.00 557.55 1011.00 543.00 C 1011.00 528.45 1007.88 509.99 1016.00 499.00
C 1008.67 499.00 1001.33 499.00 994.00 499.00
C 998.17 503.31 999.88 508.74 999.00 516.00 C 998.12 523.26 999.66 529.80 999.00 537.00
C 980.00 537.00 961.00 537.00 942.00 537.00
C 941.35 529.69 942.87 522.30 942.00 515.00 C 941.13 507.70 943.19 503.37 947.00 499.00 Z"/>
</g>
<g fill="None" fill-opacity="0.0" stroke="#007F10" stroke-opacity="1.00" stroke-width="0.3"><path d="
M 1056.00 499.00 
C 1049.00 499.00 1042.00 499.00 1035.00 499.00
C 1042.98 510.25 1040.00 528.36 1040.00 543.00 C 1040.00 557.64 1042.97 575.77 1035.00 587.00
C 1042.00 587.00 1049.00 587.00 1056.00 587.00
C 1048.02 575.76 1051.00 557.64 1051.00 543.00 C 1051.00 528.36 1048.02 510.23 1056.00 499.00 Z"/>
</g>
<g fill="#007F10" fill-opacity="1.00" stroke="None">
<path d="
M 0.00 744.00 
L 1679.00 744.00
L 1679.00 0.00
L 0.00 0.00
L 0.00 744.00
M 1663.00 16.00 
C 1663.00 189.00 1663.00 362.00 1663.00 535.00
C 1475.01 535.00 1286.99 535.00 1099.00 535.00
C 1099.00 540.67 1099.00 546.33 1099.00 552.00
C 1287.00 552.00 1475.00 552.00 1663.00 552.00
C 1663.00 610.67 1663.00 669.33 1663.00 728.00
C 1114.00 728.01 565.00 727.99 16.00 728.00
C 16.00 669.33 16.00 610.67 16.00 552.00
C 203.67 552.00 391.33 552.00 579.00 552.00
C 579.00 546.33 579.00 540.67 579.00 535.00
C 391.34 535.00 203.67 535.00 16.00 535.00
C 16.00 362.00 16.00 189.00 16.00 16.00
C 565.01 16.00 1113.99 16.00 1663.00 16.00 Z"/>
</g>
<g fill="#000000" fill-opacity="1.00" stroke="None">
<path d="
M 1663.00 16.00 
C 1113.99 16.00 565.01 16.00 16.00 16.00
C 16.00 189.00 16.00 362.00 16.00 535.00
C 203.67 535.00 391.34 535.00 579.00 535.00
C 579.00 540.67 579.00 546.33 579.00 552.00
C 391.33 552.00 203.67 552.00 16.00 552.00
C 16.00 610.67 16.00 669.33 16.00 728.00
C 565.00 727.99 1114.00 728.01 1663.00 728.00
C 1663.00 669.33 1663.00 610.67 1663.00 552.00
C 1475.00 552.00 1287.00 552.00 1099.00 552.00
C 1099.00 546.33 1099.00 540.67 1099.00 535.00
C 1286.99 535.00 1475.01 535.00 1663.00 535.00
C 1663.00 362.00 1663.00 189.00 1663.00 16.00
M 295.00 178.00 
C 294.01 184.54 283.34 191.71 290.30 198.70 C 297.27 205.68 299.47 210.29 305.30 216.70 C 311.13 223.11 314.97 227.61 320.25 233.75 C 325.52 239.89 330.23 245.69 335.30 251.70 C 340.37 257.71 345.25 262.82 350.25 268.75 C 355.24 274.68 360.40 280.77 365.25 286.75 C 370.11 292.72 375.26 297.89 380.25 303.75 C 385.24 309.62 390.33 315.85 395.25 321.75 C 400.17 327.66 405.25 332.88 410.25 338.75 C 415.24 344.62 419.87 351.10 425.25 356.75 C 430.62 362.41 434.70 369.24 441.00 374.00
C 442.92 364.79 441.76 355.74 442.00 346.00 C 442.24 336.26 441.83 325.89 442.00 316.00 C 442.17 306.11 441.79 295.97 442.00 286.00 C 442.21 276.03 441.61 266.04 442.00 256.00 C 442.39 245.96 441.17 236.13 442.00 226.00 C 442.83 215.87 440.58 207.03 441.01 196.99 C 441.44 186.95 431.13 186.18 430.00 178.00
C 446.00 178.00 462.00 178.00 478.00 178.00
C 476.78 186.65 465.41 188.50 467.00 200.00 C 468.59 211.50 466.30 221.77 467.00 233.00 C 467.70 244.23 466.73 254.88 467.00 266.00 C 467.27 277.12 466.98 287.91 467.00 299.00 C 467.02 310.09 467.22 320.89 467.00 332.00 C 466.78 343.11 467.61 353.78 467.00 365.00 C 466.39 376.22 468.40 386.53 467.00 398.00 C 465.60 409.47 475.91 411.97 479.00 420.00
C 470.50 422.80 454.25 419.68 446.00 421.00 C 437.75 422.32 415.74 421.30 425.03 414.03 C 434.32 406.75 427.24 400.09 421.75 393.25 C 416.27 386.41 411.02 381.73 405.75 375.25 C 400.48 368.77 395.43 363.06 390.25 356.75 C 385.06 350.45 379.54 344.89 374.25 338.75 C 368.96 332.61 363.97 326.39 358.75 320.25 C 353.53 314.11 348.08 308.31 342.75 302.25 C 337.43 296.19 332.63 289.78 327.25 283.75 C 321.87 277.73 316.61 271.80 311.25 265.75 C 305.89 259.70 301.12 253.33 295.75 247.25 C 290.39 241.17 285.02 235.47 279.75 229.25 C 274.48 223.03 268.76 216.59 264.00 210.00
C 260.04 217.56 262.46 227.75 262.00 237.00 C 261.54 246.25 262.17 256.57 262.00 266.00 C 261.83 275.43 262.00 285.55 262.00 295.00 C 262.00 304.45 261.83 314.67 262.00 324.00 C 262.17 333.33 261.55 344.01 262.00 353.00 C 262.45 361.99 260.96 373.81 262.00 382.00 C 263.04 390.19 259.32 403.08 263.93 409.07 C 268.53 415.06 280.18 419.23 267.00 421.00 C 253.82 422.77 250.61 419.46 238.00 421.00 C 225.39 422.54 222.93 417.23 232.08 412.08 C 241.22 406.93 235.37 395.50 237.00 387.00 C 238.63 378.50 236.29 367.12 237.00 358.00 C 237.71 348.88 236.73 338.38 237.00 329.00 C 237.27 319.61 237.00 309.46 237.00 300.00 C 237.00 290.54 237.27 280.40 237.00 271.00 C 236.73 261.60 237.72 251.15 237.00 242.00 C 236.28 232.85 238.64 221.56 237.00 213.00 C 235.36 204.44 241.42 193.79 233.25 187.75 C 225.07 181.72 223.69 177.51 236.00 178.00 C 248.31 178.49 253.89 177.75 265.00 178.00 C 276.11 178.25 284.17 177.81 295.00 178.00
M 651.00 221.00 
C 649.30 227.09 639.81 232.58 644.32 240.68 C 648.84 248.78 649.13 253.78 652.98 261.02 C 656.82 268.27 658.76 273.82 662.31 280.69 C 665.85 287.57 667.93 293.92 671.31 300.69 C 674.68 307.47 677.74 314.29 680.92 321.08 C 684.11 327.86 686.67 334.35 689.92 341.08 C 693.18 347.80 696.03 354.12 698.98 361.03 C 701.92 367.93 705.39 373.54 708.31 380.70 C 711.22 387.85 714.40 392.64 717.77 400.23 C 721.14 407.82 725.80 410.55 733.03 414.97 C 740.25 419.40 724.13 423.46 716.00 421.00 C 707.87 418.54 696.23 423.86 687.00 421.00 C 677.77 418.14 694.58 412.54 691.02 405.98 C 687.47 399.41 685.52 392.57 682.08 385.92 C 678.63 379.27 675.55 372.02 673.00 365.00
C 637.67 365.00 602.33 365.00 567.00 365.00
C 563.78 373.58 559.86 383.57 555.70 391.69 C 551.53 399.82 544.97 413.59 559.00 415.00
C 560.29 423.84 544.31 422.02 538.00 421.00 C 531.69 419.98 515.65 424.24 510.78 420.22 C 505.91 416.20 521.04 412.05 523.25 407.25 C 525.45 402.44 530.69 394.66 532.77 388.77 C 534.85 382.89 538.96 375.75 541.77 369.77 C 544.59 363.79 546.76 356.96 549.92 350.92 C 553.09 344.89 555.92 338.10 558.92 331.92 C 561.93 325.74 564.31 319.56 567.31 313.31 C 570.30 307.05 573.22 300.62 576.31 294.31 C 579.39 287.99 581.80 281.28 584.93 274.93 C 588.05 268.57 590.21 263.11 593.77 256.77 C 597.33 250.43 597.87 243.21 601.78 236.78 C 605.68 230.35 587.38 223.73 595.08 221.08 C 602.79 218.44 614.52 222.31 623.00 221.00 C 631.48 219.69 642.31 221.99 651.00 221.00
M 876.00 371.00 
C 878.81 363.57 882.77 356.51 886.31 349.31 C 889.84 342.10 893.44 335.20 896.92 327.92 C 900.41 320.65 904.15 314.12 907.77 306.77 C 911.39 299.42 914.69 292.12 918.77 284.77 C 922.85 277.42 924.67 270.87 929.31 263.31 C 933.94 255.74 934.33 250.14 939.92 241.92 C 945.52 233.71 936.30 227.95 934.00 221.00
C 943.25 220.71 949.45 221.38 959.00 221.00 C 968.55 220.62 974.52 221.71 985.00 221.00 C 995.48 220.29 996.21 225.07 987.75 229.75 C 979.30 234.44 985.44 244.37 984.00 252.00 C 982.56 259.63 984.66 269.83 984.00 278.00 C 983.34 286.17 984.33 295.63 984.00 304.00 C 983.67 312.37 984.21 321.63 984.00 330.00 C 983.79 338.37 984.23 347.82 984.00 356.00 C 983.77 364.18 984.41 374.34 984.00 382.00 C 983.59 389.66 984.51 401.05 984.78 407.22 C 985.04 413.39 999.94 417.68 992.92 420.92 C 985.89 424.15 974.11 419.91 967.00 421.00 C 959.89 422.09 946.28 423.69 947.00 415.00
C 958.71 413.52 958.20 402.39 958.00 392.00 C 957.80 381.61 958.18 368.94 958.00 358.00 C 957.82 347.06 958.27 334.09 958.00 323.00 C 957.73 311.92 958.55 299.95 958.00 289.00 C 957.45 278.05 960.06 264.42 956.00 256.00
C 947.39 274.18 937.79 292.48 928.70 310.69 C 919.60 328.91 910.68 347.26 901.23 365.23 C 891.78 383.20 883.74 403.36 872.00 419.00
C 844.88 364.32 817.71 308.87 789.00 255.00
C 789.08 266.01 788.90 276.99 789.00 288.00 C 789.10 299.01 788.80 309.98 789.00 321.00 C 789.20 332.02 788.58 342.96 789.00 354.00 C 789.42 365.04 788.08 375.91 789.00 387.00 C 789.92 398.09 784.73 406.97 795.70 414.30 C 806.66 421.64 785.63 420.99 778.00 421.00 C 770.37 421.01 749.48 421.68 760.22 414.22 C 770.97 406.77 766.24 399.18 767.00 388.00 C 767.76 376.82 766.71 365.13 767.00 354.00 C 767.29 342.87 767.01 332.04 767.00 321.00 C 766.99 309.96 767.32 298.99 767.00 288.00 C 766.68 277.01 767.84 265.92 767.00 255.00 C 766.16 244.08 771.27 235.40 760.77 228.23 C 750.27 221.06 767.54 219.69 778.00 221.00 C 788.46 222.31 798.91 219.81 811.00 221.00 C 823.09 222.19 805.50 230.22 808.93 238.07 C 812.35 245.93 815.88 252.71 819.77 260.23 C 823.66 267.75 827.06 275.63 830.92 283.08 C 834.79 290.52 838.32 297.59 841.92 305.08 C 845.53 312.56 849.50 319.68 852.92 327.08 C 856.34 334.48 859.70 342.08 863.77 349.23 C 867.84 356.38 869.95 365.30 876.00 371.00
M 1203.00 317.00 
C 1209.76 319.55 1216.22 323.26 1221.70 328.30 C 1227.18 333.35 1230.75 339.65 1233.32 346.68 C 1235.89 353.71 1237.17 366.19 1236.00 374.00 C 1234.83 381.81 1231.85 389.10 1227.25 395.25 C 1222.64 401.39 1218.42 406.49 1211.75 410.75 C 1205.09 415.02 1197.63 416.93 1189.33 418.33 C 1181.03 419.73 1171.15 420.41 1161.99 420.99 C 1152.83 421.58 1141.66 420.95 1132.00 421.00 C 1122.34 421.05 1111.95 421.44 1102.00 421.00 C 1092.05 420.56 1081.05 422.16 1071.00 421.00 C 1060.95 419.84 1051.09 423.76 1041.00 421.00 C 1030.91 418.24 1047.74 413.59 1047.99 405.99 C 1048.24 398.39 1049.60 386.06 1049.00 377.00 C 1048.40 367.94 1049.42 356.59 1049.00 347.00 C 1048.58 337.41 1049.51 325.69 1049.00 316.00 C 1048.49 306.31 1049.96 295.46 1049.00 286.00 C 1048.04 276.54 1051.06 264.88 1049.00 256.00 C 1046.94 247.12 1054.85 235.94 1045.25 229.75 C 1035.64 223.57 1037.76 220.45 1050.00 221.00 C 1062.24 221.55 1069.95 220.77 1081.00 221.00 C 1092.05 221.23 1100.65 220.97 1111.00 221.00 C 1121.35 221.03 1131.12 221.14 1141.00 221.00 C 1150.88 220.86 1161.17 221.07 1170.22 221.78 C 1179.27 222.49 1188.28 222.94 1196.02 225.98 C 1203.77 229.01 1209.41 232.05 1215.25 237.75 C 1221.09 243.45 1223.69 248.76 1226.78 256.22 C 1229.87 263.69 1229.87 273.96 1229.00 282.00 C 1228.14 290.04 1224.04 296.05 1219.25 302.25 C 1214.46 308.45 1207.48 311.53 1203.00 317.00
M 1394.00 221.00 
C 1391.46 227.55 1382.24 233.02 1387.32 241.68 C 1392.41 250.34 1393.51 256.21 1397.77 264.23 C 1402.03 272.25 1403.90 279.41 1407.92 287.08 C 1411.95 294.75 1414.71 302.06 1418.31 309.69 C 1421.90 317.33 1425.47 324.59 1428.77 332.23 C 1432.07 339.86 1436.02 347.13 1439.31 354.69 C 1442.59 362.26 1446.14 369.87 1449.77 377.23 C 1453.40 384.59 1456.30 392.74 1460.30 399.70 C 1464.31 406.66 1468.95 414.93 1478.00 415.00
C 1477.63 424.41 1465.63 421.22 1457.00 421.00 C 1448.37 420.78 1439.68 422.51 1430.00 421.00 C 1420.32 419.49 1437.45 411.66 1433.67 405.33 C 1429.89 399.00 1428.94 393.05 1425.23 386.77 C 1421.52 380.50 1421.21 374.50 1416.70 368.31 C 1412.18 362.11 1400.11 365.67 1392.00 365.00 C 1383.89 364.33 1373.64 365.31 1365.00 365.00 C 1356.36 364.69 1346.93 365.16 1338.00 365.00 C 1329.07 364.84 1319.03 365.12 1310.00 365.00
C 1309.41 373.08 1300.31 380.85 1299.70 388.69 C 1299.08 396.54 1284.70 405.76 1296.08 412.92 C 1307.47 420.07 1292.05 423.31 1282.00 421.00 C 1271.95 418.69 1254.77 426.88 1253.00 415.00
C 1260.14 414.91 1265.16 409.21 1268.30 403.30 C 1271.45 397.40 1274.41 391.17 1276.98 384.98 C 1279.54 378.78 1283.40 373.05 1285.77 366.77 C 1288.14 360.49 1291.63 354.52 1294.31 348.31 C 1296.98 342.09 1299.97 335.98 1302.77 329.77 C 1305.57 323.57 1308.24 317.46 1311.31 311.31 C 1314.37 305.15 1317.10 298.20 1319.93 291.93 C 1322.75 285.65 1325.79 279.95 1328.77 273.77 C 1331.75 267.59 1333.80 261.08 1336.98 254.98 C 1340.15 248.87 1342.40 242.28 1344.93 235.93 C 1347.45 229.57 1329.92 223.35 1339.03 221.03 C 1348.13 218.71 1356.84 222.15 1366.00 221.00 C 1375.16 219.85 1384.80 221.86 1394.00 221.00
M 705.00 503.00 
C 700.99 508.24 700.39 518.10 694.00 520.00
C 693.95 509.63 678.45 506.35 667.99 506.01 C 657.54 505.67 643.38 505.70 635.75 515.75 C 628.12 525.81 638.73 537.81 651.01 536.99 C 663.29 536.17 678.42 537.79 690.02 539.98 C 701.63 542.17 707.78 554.44 705.67 565.67 C 703.56 576.90 694.29 582.10 683.98 585.98 C 673.66 589.85 657.82 589.00 646.98 587.02 C 636.13 585.04 626.44 575.99 617.00 580.00
C 616.72 573.81 623.67 568.13 626.00 562.00
C 630.59 572.14 643.76 579.69 656.22 579.78 C 668.69 579.87 684.63 582.36 692.77 568.77 C 700.91 555.18 683.14 546.40 670.00 548.00 C 656.86 549.60 640.40 547.19 629.75 540.25 C 619.11 533.30 619.55 515.62 629.25 507.25 C 638.95 498.88 653.89 497.09 667.00 497.00 C 680.11 496.91 693.06 505.73 705.00 503.00
M 910.00 503.00 
C 905.99 508.24 905.39 518.10 899.00 520.00
C 898.95 509.63 883.44 506.35 872.99 506.01 C 862.54 505.67 848.38 505.70 840.75 515.75 C 833.12 525.81 843.73 537.81 856.01 536.99 C 868.29 536.17 883.42 537.79 895.02 539.98 C 906.63 542.17 912.78 554.44 910.67 565.67 C 908.56 576.90 899.29 582.10 888.98 585.98 C 878.66 589.85 862.82 589.00 851.98 587.02 C 841.13 585.04 831.44 575.99 822.00 580.00
C 821.72 573.81 828.67 568.13 831.00 562.00
C 835.59 572.14 848.76 579.69 861.22 579.78 C 873.69 579.87 889.64 582.37 897.77 568.77 C 905.90 555.17 888.14 546.40 875.00 548.00 C 861.86 549.60 845.40 547.19 834.75 540.25 C 824.11 533.30 824.55 515.62 834.25 507.25 C 843.95 498.87 858.89 497.09 872.00 497.00 C 885.11 496.91 898.06 505.73 910.00 503.00
M 740.00 499.00 
C 728.89 514.65 738.75 530.84 735.00 551.00 C 731.25 571.16 745.22 580.01 764.00 580.00 C 782.78 579.99 797.51 572.42 794.00 552.00 C 790.49 531.58 799.97 514.93 789.00 499.00
C 795.67 499.00 802.33 499.00 809.00 499.00
C 800.21 509.64 804.53 533.39 804.00 548.00 C 803.47 562.61 804.19 580.91 787.77 585.77 C 771.35 590.63 756.47 590.67 739.98 586.02 C 723.48 581.38 723.89 563.76 723.00 549.00 C 722.11 534.24 727.09 509.83 718.00 499.00
C 725.33 499.00 732.67 499.00 740.00 499.00
M 947.00 499.00 
C 943.19 503.37 941.13 507.70 942.00 515.00 C 942.87 522.30 941.35 529.69 942.00 537.00
C 961.00 537.00 980.00 537.00 999.00 537.00
C 999.66 529.80 998.12 523.26 999.00 516.00 C 999.88 508.74 998.17 503.31 994.00 499.00
C 1001.33 499.00 1008.67 499.00 1016.00 499.00
C 1007.88 509.99 1011.00 528.45 1011.00 543.00 C 1011.00 557.55 1007.88 576.01 1016.00 587.00
C 1008.67 587.00 1001.34 587.00 994.00 587.00
C 1003.28 577.66 997.35 559.59 999.00 546.00
C 980.00 546.00 961.00 546.00 942.00 546.00
C 941.46 553.68 942.72 561.32 942.00 569.00 C 941.28 576.68 942.41 582.47 947.00 587.00
C 939.67 587.00 932.33 587.00 925.00 587.00
C 933.14 576.56 930.00 557.51 930.00 543.00 C 930.00 528.49 933.16 509.46 925.00 499.00
C 932.33 499.00 939.67 499.00 947.00 499.00
M 1056.00 499.00 
C 1048.02 510.23 1051.00 528.36 1051.00 543.00 C 1051.00 557.64 1048.02 575.76 1056.00 587.00
C 1049.00 587.00 1042.00 587.00 1035.00 587.00
C 1042.97 575.77 1040.00 557.64 1040.00 543.00 C 1040.00 528.36 1042.98 510.25 1035.00 499.00
C 1042.00 499.00 1049.00 499.00 1056.00 499.00 Z"/>
</g>
<g fill="#007F10" fill-opacity="1.00" stroke="None">
<path d="
M 295.00 178.00 
C 284.17 177.81 276.11 178.25 265.00 178.00 C 253.89 177.75 248.31 178.49 236.00 178.00 C 223.69 177.51 225.07 181.72 233.25 187.75 C 241.42 193.79 235.36 204.44 237.00 213.00 C 238.64 221.56 236.28 232.85 237.00 242.00 C 237.72 251.15 236.73 261.60 237.00 271.00 C 237.27 280.40 237.00 290.54 237.00 300.00 C 237.00 309.46 237.27 319.61 237.00 329.00 C 236.73 338.38 237.71 348.88 237.00 358.00 C 236.29 367.12 238.63 378.50 237.00 387.00 C 235.37 395.50 241.22 406.93 232.08 412.08 C 222.93 417.23 225.39 422.54 238.00 421.00 C 250.61 419.46 253.82 422.77 267.00 421.00 C 280.18 419.23 268.53 415.06 263.93 409.07 C 259.32 403.08 263.04 390.19 262.00 382.00 C 260.96 373.81 262.45 361.99 262.00 353.00 C 261.55 344.01 262.17 333.33 262.00 324.00 C 261.83 314.67 262.00 304.45 262.00 295.00 C 262.00 285.55 261.83 275.43 262.00 266.00 C 262.17 256.57 261.54 246.25 262.00 237.00 C 262.46 227.75 260.04 217.56 264.00 210.00
C 268.76 216.59 274.48 223.03 279.75 229.25 C 285.02 235.47 290.39 241.17 295.75 247.25 C 301.12 253.33 305.89 259.70 311.25 265.75 C 316.61 271.80 321.87 277.73 327.25 283.75 C 332.63 289.78 337.43 296.19 342.75 302.25 C 348.08 308.31 353.53 314.11 358.75 320.25 C 363.97 326.39 368.96 332.61 374.25 338.75 C 379.54 344.89 385.06 350.45 390.25 356.75 C 395.43 363.06 400.48 368.77 405.75 375.25 C 411.02 381.73 416.27 386.41 421.75 393.25 C 427.24 400.09 434.32 406.75 425.03 414.03 C 415.74 421.30 437.75 422.32 446.00 421.00 C 454.25 419.68 470.50 422.80 479.00 420.00
C 475.91 411.97 465.60 409.47 467.00 398.00 C 468.40 386.53 466.39 376.22 467.00 365.00 C 467.61 353.78 466.78 343.11 467.00 332.00 C 467.22 320.89 467.02 310.09 467.00 299.00 C 466.98 287.91 467.27 277.12 467.00 266.00 C 466.73 254.88 467.70 244.23 467.00 233.00 C 466.30 221.77 468.59 211.50 467.00 200.00 C 465.41 188.50 476.78 186.65 478.00 178.00
C 462.00 178.00 446.00 178.00 430.00 178.00
C 431.13 186.18 441.44 186.95 441.01 196.99 C 440.58 207.03 442.83 215.87 442.00 226.00 C 441.17 236.13 442.39 245.96 442.00 256.00 C 441.61 266.04 442.21 276.03 442.00 286.00 C 441.79 295.97 442.17 306.11 442.00 316.00 C 441.83 325.89 442.24 336.26 442.00 346.00 C 441.76 355.74 442.92 364.79 441.00 374.00
C 434.70 369.24 430.62 362.41 425.25 356.75 C 419.87 351.10 415.24 344.62 410.25 338.75 C 405.25 332.88 400.17 327.66 395.25 321.75 C 390.33 315.85 385.24 309.62 380.25 303.75 C 375.26 297.89 370.11 292.72 365.25 286.75 C 360.40 280.77 355.24 274.68 350.25 268.75 C 345.25 262.82 340.37 257.71 335.30 251.70 C 330.23 245.69 325.52 239.89 320.25 233.75 C 314.97 227.61 311.13 223.11 305.30 216.70 C 299.47 210.29 297.27 205.68 290.30 198.70 C 283.34 191.71 294.01 184.54 295.00 178.00 Z"/>
</g>
<g fill="#007F10" fill-opacity="1.00" stroke="None">
<path d="
M 651.00 221.00 
C 642.31 221.99 631.48 219.69 623.00 221.00 C 614.52 222.31 602.79 218.44 595.08 221.08 C 587.38 223.73 605.68 230.35 601.78 236.78 C 597.87 243.21 597.33 250.43 593.77 256.77 C 590.21 263.11 588.05 268.57 584.93 274.93 C 581.80 281.28 579.39 287.99 576.31 294.31 C 573.22 300.62 570.30 307.05 567.31 313.31 C 564.31 319.56 561.93 325.74 558.92 331.92 C 555.92 338.10 553.09 344.89 549.92 350.92 C 546.76 356.96 544.59 363.79 541.77 369.77 C 538.96 375.75 534.85 382.89 532.77 388.77 C 530.69 394.66 525.45 402.44 523.25 407.25 C 521.04 412.05 505.91 416.20 510.78 420.22 C 515.65 424.24 531.69 419.98 538.00 421.00 C 544.31 422.02 560.29 423.84 559.00 415.00
C 544.97 413.59 551.53 399.82 555.70 391.69 C 559.86 383.57 563.78 373.58 567.00 365.00
C 602.33 365.00 637.67 365.00 673.00 365.00
C 675.55 372.02 678.63 379.27 682.08 385.92 C 685.52 392.57 687.47 399.41 691.02 405.98 C 694.58 412.54 677.77 418.14 687.00 421.00 C 696.23 423.86 707.87 418.54 716.00 421.00 C 724.13 423.46 740.25 419.40 733.03 414.97 C 725.80 410.55 721.14 407.82 717.77 400.23 C 714.40 392.64 711.22 387.85 708.31 380.70 C 705.39 373.54 701.92 367.93 698.98 361.03 C 696.03 354.12 693.18 347.80 689.92 341.08 C 686.67 334.35 684.11 327.86 680.92 321.08 C 677.74 314.29 674.68 307.47 671.31 300.69 C 667.93 293.92 665.85 287.57 662.31 280.69 C 658.76 273.82 656.82 268.27 652.98 261.02 C 649.13 253.78 648.84 248.78 644.32 240.68 C 639.81 232.58 649.30 227.09 651.00 221.00
M 621.00 249.00 
C 635.15 280.96 650.38 312.55 663.00 345.00
C 634.33 345.00 605.67 345.00 577.00 345.00
C 591.24 312.99 604.56 279.68 621.00 249.00 Z"/>
</g>
<g fill="#007F10" fill-opacity="1.00" stroke="None">
<path d="
M 876.00 371.00 
C 869.95 365.30 867.84 356.38 863.77 349.23 C 859.70 342.08 856.34 334.48 852.92 327.08 C 849.50 319.68 845.53 312.56 841.92 305.08 C 838.32 297.59 834.79 290.52 830.92 283.08 C 827.06 275.63 823.66 267.75 819.77 260.23 C 815.88 252.71 812.35 245.93 808.93 238.07 C 805.50 230.22 823.09 222.19 811.00 221.00 C 798.91 219.81 788.46 222.31 778.00 221.00 C 767.54 219.69 750.27 221.06 760.77 228.23 C 771.27 235.40 766.16 244.08 767.00 255.00 C 767.84 265.92 766.68 277.01 767.00 288.00 C 767.32 298.99 766.99 309.96 767.00 321.00 C 767.01 332.04 767.29 342.87 767.00 354.00 C 766.71 365.13 767.76 376.82 767.00 388.00 C 766.24 399.18 770.97 406.77 760.22 414.22 C 749.48 421.68 770.37 421.01 778.00 421.00 C 785.63 420.99 806.66 421.64 795.70 414.30 C 784.73 406.97 789.92 398.09 789.00 387.00 C 788.08 375.91 789.42 365.04 789.00 354.00 C 788.58 342.96 789.20 332.02 789.00 321.00 C 788.80 309.98 789.10 299.01 789.00 288.00 C 788.90 276.99 789.08 266.01 789.00 255.00
C 817.71 308.87 844.88 364.32 872.00 419.00
C 883.74 403.36 891.78 383.20 901.23 365.23 C 910.68 347.26 919.60 328.91 928.70 310.69 C 937.79 292.48 947.39 274.18 956.00 256.00
C 960.06 264.42 957.45 278.05 958.00 289.00 C 958.55 299.95 957.73 311.92 958.00 323.00 C 958.27 334.09 957.82 347.06 958.00 358.00 C 958.18 368.94 957.80 381.61 958.00 392.00 C 958.20 402.39 958.71 413.52 947.00 415.00
C 946.28 423.69 959.89 422.09 967.00 421.00 C 974.11 419.91 985.89 424.15 992.92 420.92 C 999.94 417.68 985.04 413.39 984.78 407.22 C 984.51 401.05 983.59 389.66 984.00 382.00 C 984.41 374.34 983.77 364.18 984.00 356.00 C 984.23 347.82 983.79 338.37 984.00 330.00 C 984.21 321.63 983.67 312.37 984.00 304.00 C 984.33 295.63 983.34 286.17 984.00 278.00 C 984.66 269.83 982.56 259.63 984.00 252.00 C 985.44 244.37 979.30 234.44 987.75 229.75 C 996.21 225.07 995.48 220.29 985.00 221.00 C 974.52 221.71 968.55 220.62 959.00 221.00 C 949.45 221.38 943.25 220.71 934.00 221.00
C 936.30 227.95 945.52 233.71 939.92 241.92 C 934.33 250.14 933.94 255.74 929.31 263.31 C 924.67 270.87 922.85 277.42 918.77 284.77 C 914.69 292.12 911.39 299.42 907.77 306.77 C 904.15 314.12 900.41 320.65 896.92 327.92 C 893.44 335.20 889.84 342.10 886.31 349.31 C 882.77 356.51 878.81 363.57 876.00 371.00 Z"/>
</g>
<g fill="#007F10" fill-opacity="1.00" stroke="None">
<path d="
M 1203.00 317.00 
C 1207.48 311.53 1214.46 308.45 1219.25 302.25 C 1224.04 296.05 1228.14 290.04 1229.00 282.00 C 1229.87 273.96 1229.87 263.69 1226.78 256.22 C 1223.69 248.76 1221.09 243.45 1215.25 237.75 C 1209.41 232.05 1203.77 229.01 1196.02 225.98 C 1188.28 222.94 1179.27 222.49 1170.22 221.78 C 1161.17 221.07 1150.88 220.86 1141.00 221.00 C 1131.12 221.14 1121.35 221.03 1111.00 221.00 C 1100.65 220.97 1092.05 221.23 1081.00 221.00 C 1069.95 220.77 1062.24 221.55 1050.00 221.00 C 1037.76 220.45 1035.64 223.57 1045.25 229.75 C 1054.85 235.94 1046.94 247.12 1049.00 256.00 C 1051.06 264.88 1048.04 276.54 1049.00 286.00 C 1049.96 295.46 1048.49 306.31 1049.00 316.00 C 1049.51 325.69 1048.58 337.41 1049.00 347.00 C 1049.42 356.59 1048.40 367.94 1049.00 377.00 C 1049.60 386.06 1048.24 398.39 1047.99 405.99 C 1047.74 413.59 1030.91 418.24 1041.00 421.00 C 1051.09 423.76 1060.95 419.84 1071.00 421.00 C 1081.05 422.16 1092.05 420.56 1102.00 421.00 C 1111.95 421.44 1122.34 421.05 1132.00 421.00 C 1141.66 420.95 1152.83 421.58 1161.99 420.99 C 1171.15 420.41 1181.03 419.73 1189.33 418.33 C 1197.63 416.93 1205.09 415.02 1211.75 410.75 C 1218.42 406.49 1222.64 401.39 1227.25 395.25 C 1231.85 389.10 1234.83 381.81 1236.00 374.00 C 1237.17 366.19 1235.89 353.71 1233.32 346.68 C 1230.75 339.65 1227.18 333.35 1221.70 328.30 C 1216.22 323.26 1209.76 319.55 1203.00 317.00
M 1074.00 241.00 
C 1085.48 241.02 1097.59 240.98 1109.00 241.00 C 1120.41 241.02 1133.92 240.96 1145.00 241.00 C 1156.08 241.04 1169.40 240.22 1179.02 242.98 C 1188.65 245.73 1195.09 249.41 1200.75 257.25 C 1206.41 265.09 1206.44 278.39 1203.02 287.02 C 1199.61 295.65 1193.61 300.14 1184.31 303.31 C 1175.00 306.47 1162.49 306.00 1151.78 306.78 C 1141.07 307.56 1127.28 307.17 1116.00 307.00 C 1104.72 306.83 1091.37 307.91 1080.00 307.00 C 1068.63 306.09 1075.45 286.87 1074.00 277.00 C 1072.55 267.13 1075.09 251.40 1074.00 241.00
M 1167.00 326.00 
C 1175.33 326.81 1184.66 328.80 1192.23 332.77 C 1199.80 336.74 1205.22 341.15 1208.77 349.23 C 1212.32 357.31 1213.11 368.83 1210.07 377.07 C 1207.04 385.31 1203.13 391.31 1194.92 394.92 C 1186.72 398.53 1178.58 400.96 1169.00 401.00 C 1159.42 401.03 1145.65 401.53 1136.00 401.00 C 1126.35 400.47 1111.81 402.45 1103.00 401.00 C 1094.19 399.55 1076.35 406.14 1074.01 396.99 C 1071.67 387.84 1074.74 375.07 1074.00 365.00 C 1073.26 354.93 1073.77 342.42 1074.00 332.00 C 1074.23 321.58 1091.84 326.64 1101.00 326.00 C 1110.16 325.36 1124.13 325.87 1134.00 326.00 C 1143.87 326.13 1156.02 324.94 1166.00 326.00 Z"/>
</g>
<g fill="#007F10" fill-opacity="1.00" stroke="None">
<path d="
M 1394.00 221.00 
C 1384.80 221.86 1375.16 219.85 1366.00 221.00 C 1356.84 222.15 1348.13 218.71 1339.03 221.03 C 1329.92 223.35 1347.45 229.57 1344.93 235.93 C 1342.40 242.28 1340.15 248.87 1336.98 254.98 C 1333.80 261.08 1331.75 267.59 1328.77 273.77 C 1325.79 279.95 1322.75 285.65 1319.93 291.93 C 1317.10 298.20 1314.37 305.15 1311.31 311.31 C 1308.24 317.46 1305.57 323.57 1302.77 329.77 C 1299.97 335.98 1296.98 342.09 1294.31 348.31 C 1291.63 354.52 1288.14 360.49 1285.77 366.77 C 1283.40 373.05 1279.54 378.78 1276.98 384.98 C 1274.41 391.17 1271.45 397.40 1268.30 403.30 C 1265.16 409.21 1260.14 414.91 1253.00 415.00
C 1254.77 426.88 1271.95 418.69 1282.00 421.00 C 1292.05 423.31 1307.47 420.07 1296.08 412.92 C 1284.70 405.76 1299.08 396.54 1299.70 388.69 C 1300.31 380.85 1309.41 373.08 1310.00 365.00
C 1319.03 365.12 1329.07 364.84 1338.00 365.00 C 1346.93 365.16 1356.36 364.69 1365.00 365.00 C 1373.64 365.31 1383.89 364.33 1392.00 365.00 C 1400.11 365.67 1412.18 362.11 1416.70 368.31 C 1421.21 374.50 1421.52 380.50 1425.23 386.77 C 1428.94 393.05 1429.89 399.00 1433.67 405.33 C 1437.45 411.66 1420.32 419.49 1430.00 421.00 C 1439.68 422.51 1448.37 420.78 1457.00 421.00 C 1465.63 421.22 1477.63 424.41 1478.00 415.00
C 1468.95 414.93 1464.31 406.66 1460.30 399.70 C 1456.30 392.74 1453.40 384.59 1449.77 377.23 C 1446.14 369.87 1442.59 362.26 1439.31 354.69 C 1436.02 347.13 1432.07 339.86 1428.77 332.23 C 1425.47 324.59 1421.90 317.33 1418.31 309.69 C 1414.71 302.06 1411.95 294.75 1407.92 287.08 C 1403.90 279.41 1402.03 272.25 1397.77 264.23 C 1393.51 256.21 1392.41 250.34 1387.32 241.68 C 1382.24 233.02 1391.46 227.55 1394.00 221.00
M 1406.00 345.00 
C 1377.34 345.00 1348.66 345.00 1320.00 345.00
C 1332.75 312.63 1349.19 281.42 1362.00 249.00
C 1371.86 262.18 1377.44 280.30 1384.92 296.08 C 1392.41 311.85 1399.66 328.76 1406.00 345.00 Z"/>
</g>
<g fill="#000000" fill-opacity="1.00" stroke="None">
<path d="
M 1074.00 241.00 
C 1075.09 251.40 1072.55 267.13 1074.00 277.00 C 1075.45 286.87 1068.63 306.09 1080.00 307.00 C 1091.37 307.91 1104.72 306.83 1116.00 307.00 C 1127.28 307.17 1141.07 307.56 1151.78 306.78 C 1162.49 306.00 1175.00 306.47 1184.31 303.31 C 1193.61 300.14 1199.61 295.65 1203.02 287.02 C 1206.44 278.39 1206.41 265.09 1200.75 257.25 C 1195.09 249.41 1188.65 245.73 1179.02 242.98 C 1169.40 240.22 1156.08 241.04 1145.00 241.00 C 1133.92 240.96 1120.41 241.02 1109.00 241.00 C 1097.59 240.98 1085.48 241.02 1074.00 241.00 Z"/>
</g>
<g fill="#000000" fill-opacity="1.00" stroke="None">
<path d="
M 621.00 249.00 
C 604.56 279.68 591.24 312.99 577.00 345.00
C 605.67 345.00 634.33 345.00 663.00 345.00
C 650.38 312.55 635.15 280.96 621.00 249.00 Z"/>
</g>
<g fill="#000000" fill-opacity="1.00" stroke="None">
<path d="
M 1406.00 345.00 
C 1399.66 328.76 1392.41 311.85 1384.92 296.08 C 1377.44 280.30 1371.86 262.18 1362.00 249.00
C 1349.19 281.42 1332.75 312.63 1320.00 345.00
C 1348.66 345.00 1377.34 345.00 1406.00 345.00 Z"/>
</g>
<g fill="#000000" fill-opacity="1.00" stroke="None">
<path d="
M 1166.00 326.00 
C 1156.02 324.94 1143.87 326.13 1134.00 326.00 C 1124.13 325.87 1110.16 325.36 1101.00 326.00 C 1091.84 326.64 1074.23 321.58 1074.00 332.00 C 1073.77 342.42 1073.26 354.93 1074.00 365.00 C 1074.74 375.07 1071.67 387.84 1074.01 396.99 C 1076.35 406.14 1094.19 399.55 1103.00 401.00 C 1111.81 402.45 1126.35 400.47 1136.00 401.00 C 1145.65 401.53 1159.42 401.03 1169.00 401.00 C 1178.58 400.96 1186.72 398.53 1194.92 394.92 C 1203.13 391.31 1207.04 385.31 1210.07 377.07 C 1213.11 368.83 1212.32 357.31 1208.77 349.23 C 1205.22 341.15 1199.80 336.74 1192.23 332.77 C 1184.66 328.80 1175.33 326.81 1167.00 326.00 Z"/>
</g>
<g fill="#007F10" fill-opacity="1.00" stroke="None">
<path d="
M 705.00 503.00 
C 693.06 505.73 680.11 496.91 667.00 497.00 C 653.89 497.09 638.95 498.88 629.25 507.25 C 619.55 515.62 619.11 533.30 629.75 540.25 C 640.40 547.19 656.86 549.60 670.00 548.00 C 683.14 546.40 700.91 555.18 692.77 568.77 C 684.63 582.36 668.69 579.87 656.22 579.78 C 643.76 579.69 630.59 572.14 626.00 562.00
C 623.67 568.13 616.72 573.81 617.00 580.00
C 626.44 575.99 636.13 585.04 646.98 587.02 C 657.82 589.00 673.66 589.85 683.98 585.98 C 694.29 582.10 703.56 576.90 705.67 565.67 C 707.78 554.44 701.63 542.17 690.02 539.98 C 678.42 537.79 663.29 536.17 651.01 536.99 C 638.73 537.81 628.12 525.81 635.75 515.75 C 643.38 505.70 657.54 505.67 667.99 506.01 C 678.45 506.35 693.95 509.63 694.00 520.00
C 700.39 518.10 700.99 508.24 705.00 503.00 Z"/>
</g>
<g fill="#007F10" fill-opacity="1.00" stroke="None">
<path d="
M 910.00 503.00 
C 898.06 505.73 885.11 496.91 872.00 497.00 C 858.89 497.09 843.95 498.87 834.25 507.25 C 824.55 515.62 824.11 533.30 834.75 540.25 C 845.40 547.19 861.86 549.60 875.00 548.00 C 888.14 546.40 905.90 555.17 897.77 568.77 C 889.64 582.37 873.69 579.87 861.22 579.78 C 848.76 579.69 835.59 572.14 831.00 562.00
C 828.67 568.13 821.72 573.81 822.00 580.00
C 831.44 575.99 841.13 585.04 851.98 587.02 C 862.82 589.00 878.66 589.85 888.98 585.98 C 899.29 582.10 908.56 576.90 910.67 565.67 C 912.78 554.44 906.63 542.17 895.02 539.98 C 883.42 537.79 868.29 536.17 856.01 536.99 C 843.73 537.81 833.12 525.81 840.75 515.75 C 848.38 505.70 862.54 505.67 872.99 506.01 C 883.44 506.35 898.95 509.63 899.00 520.00
C 905.39 518.10 905.99 508.24 910.00 503.00 Z"/>
</g>
<g fill="#007F10" fill-opacity="1.00" stroke="None">
<path d="
M 740.00 499.00 
C 732.67 499.00 725.33 499.00 718.00 499.00
C 727.09 509.83 722.11 534.24 723.00 549.00 C 723.89 563.76 723.48 581.38 739.98 586.02 C 756.47 590.67 771.35 590.63 787.77 585.77 C 804.19 580.91 803.47 562.61 804.00 548.00 C 804.53 533.39 800.21 509.64 809.00 499.00
C 802.33 499.00 795.67 499.00 789.00 499.00
C 799.97 514.93 790.49 531.58 794.00 552.00 C 797.51 572.42 782.78 579.99 764.00 580.00 C 745.22 580.01 731.25 571.16 735.00 551.00 C 738.75 530.84 728.89 514.65 740.00 499.00 Z"/>
</g>
<g fill="#007F10" fill-opacity="1.00" stroke="None">
<path d="
M 947.00 499.00 
C 939.67 499.00 932.33 499.00 925.00 499.00
C 933.16 509.46 930.00 528.49 930.00 543.00 C 930.00 557.51 933.14 576.56 925.00 587.00
C 932.33 587.00 939.67 587.00 947.00 587.00
C 942.41 582.47 941.28 576.68 942.00 569.00 C 942.72 561.32 941.46 553.68 942.00 546.00
C 961.00 546.00 980.00 546.00 999.00 546.00
C 997.35 559.59 1003.28 577.66 994.00 587.00
C 1001.34 587.00 1008.67 587.00 1016.00 587.00
C 1007.88 576.01 1011.00 557.55 1011.00 543.00 C 1011.00 528.45 1007.88 509.99 1016.00 499.00
C 1008.67 499.00 1001.33 499.00 994.00 499.00
C 998.17 503.31 999.88 508.74 999.00 516.00 C 998.12 523.26 999.66 529.80 999.00 537.00
C 980.00 537.00 961.00 537.00 942.00 537.00
C 941.35 529.69 942.87 522.30 942.00 515.00 C 941.13 507.70 943.19 503.37 947.00 499.00 Z"/>
</g>
<g fill="#007F10" fill-opacity="1.00" stroke="None">
<path d="
M 1056.00 499.00 
C 1049.00 499.00 1042.00 499.00 1035.00 499.00
C 1042.98 510.25 1040.00 528.36 1040.00 543.00 C 1040.00 557.64 1042.97 575.77 1035.00 587.00
C 1042.00 587.00 1049.00 587.00 1056.00 587.00
C 1048.02 575.76 1051.00 557.64 1051.00 543.00 C 1051.00 528.36 1048.02 510.23 1056.00 499.00 Z"/>
</g>
</svg>