<svg width="822.559" height="84.033" viewBox="0 0 822.559 84.033" xmlns="http://www.w3.org/2000/svg"><g id="svgGroup" stroke-linecap="round" fill-rule="evenodd" font-size="9pt" stroke="#000" stroke-width="0.25mm" fill="#000000" style="stroke:#000;stroke-width:0.25mm;fill:#000000"><path d="M 2.051 30.225 L 0.098 31.201 A 32.043 32.043 0 0 1 3.473 24.046 A 28.857 28.857 0 0 1 5.005 21.875 A 38.084 38.084 0 0 1 12.085 14.844 A 44.835 44.835 0 0 1 20.483 9.814 A 69.247 69.247 0 0 1 28.177 6.808 A 62.635 62.635 0 0 1 29.346 6.445 A 83.85 83.85 0 0 1 44.253 3.462 A 99.897 99.897 0 0 1 51.563 2.93 A 106.151 106.151 0 0 0 56.392 2.815 A 128.13 128.13 0 0 0 59.473 2.637 Q 62.578 2.427 66.44 2.019 A 269.149 269.149 0 0 0 67.725 1.88 A 120.223 120.223 0 0 0 74.334 0.956 A 142.081 142.081 0 0 0 77.49 0.391 A 22.379 22.379 0 0 0 74.976 5.469 Q 74.023 8.203 73.486 10.986 A 46.693 46.693 0 0 0 72.754 16.479 A 79.92 79.92 0 0 0 72.607 19.073 A 60.09 60.09 0 0 0 72.559 21.436 Q 72.559 22.948 72.607 24.168 A 178.716 178.716 0 0 0 72.607 24.17 A 40.685 40.685 0 0 0 72.651 25.037 Q 72.677 25.464 72.711 25.839 A 20.642 20.642 0 0 0 72.754 26.27 A 27.439 27.439 0 0 0 72.864 27.246 A 20.319 20.319 0 0 0 72.998 28.125 A 79.895 79.895 0 0 0 62.618 24.247 A 66.049 66.049 0 0 0 56.348 22.729 A 86.807 86.807 0 0 0 44.492 21.288 A 76.565 76.565 0 0 0 40.674 21.191 A 70.567 70.567 0 0 0 37.005 21.284 A 61.024 61.024 0 0 0 35.742 21.362 A 91.34 91.34 0 0 0 31.055 21.826 A 9.759 9.759 0 0 0 31.805 23.975 A 7.858 7.858 0 0 0 32.983 25.732 A 18.458 18.458 0 0 0 34.381 27.148 A 13.73 13.73 0 0 0 35.791 28.271 Q 37.451 29.395 39.355 30.029 A 117.361 117.361 0 0 1 43.225 31.329 A 153.781 153.781 0 0 1 47.412 32.886 Q 51.758 34.57 56.104 37.061 Q 60.449 39.551 64.453 42.92 Q 68.457 46.289 71.484 50.732 Q 73.34 49.17 75.098 47.29 A 35.164 35.164 0 0 0 78.369 43.213 A 18.91 18.91 0 0 1 78.538 45.248 A 17.449 17.449 0 0 1 78.54 45.312 A 84.141 84.141 0 0 1 78.564 47.314 A 29.376 29.376 0 0 1 77.606 54.902 A 26.787 26.787 0 0 1 76.978 56.934 A 31.315 31.315 0 0 1 72.607 65.186 A 35.23 35.23 0 0 1 66.04 71.924 A 41.091 41.091 0 0 1 57.813 76.953 A 46.72 46.72 0 0 1 48.511 80.103 Q 43.652 81.201 38.77 81.201 Q 34.18 81.201 29.932 80.811 A 93.968 93.968 0 0 0 24.793 80.475 A 79.233 79.233 0 0 0 21.875 80.42 A 36.831 36.831 0 0 0 18.093 80.607 A 31.193 31.193 0 0 0 16.357 80.835 A 13.868 13.868 0 0 0 11.572 82.52 A 157.674 157.674 0 0 0 9.711 76.141 A 121.047 121.047 0 0 0 7.739 70.386 A 224.701 224.701 0 0 0 6.264 66.526 Q 5.519 64.631 4.822 62.979 A 114.806 114.806 0 0 0 4.004 61.084 Q 2.002 56.592 0 53.027 A 68.464 68.464 0 0 0 9.458 57.109 A 61.753 61.753 0 0 0 11.646 57.812 A 108.155 108.155 0 0 0 18.72 59.695 A 89.139 89.139 0 0 0 22.754 60.522 A 97.534 97.534 0 0 0 27.795 61.304 A 71.435 71.435 0 0 0 32.373 61.743 A 187.252 187.252 0 0 0 34.454 61.861 Q 37.439 62.012 39.6 62.012 A 54.734 54.734 0 0 0 46.094 61.621 A 53.144 53.144 0 0 0 52.686 60.4 A 18.817 18.817 0 0 0 51.575 59.032 A 15.807 15.807 0 0 0 50.977 58.398 A 18.798 18.798 0 0 0 50.287 57.741 Q 49.8 57.301 49.365 56.982 A 15.954 15.954 0 0 0 48.339 56.297 A 12.858 12.858 0 0 0 47.656 55.908 A 14.315 14.315 0 0 0 46.564 55.441 Q 45.409 54.998 43.823 54.565 A 625.224 625.224 0 0 0 41.272 53.876 A 841.698 841.698 0 0 0 38.452 53.125 A 494.37 494.37 0 0 1 35.4 52.307 A 598.425 598.425 0 0 1 32.153 51.416 A 82.946 82.946 0 0 1 25.513 49.268 A 55.057 55.057 0 0 1 19.214 46.484 A 29.458 29.458 0 0 1 15.238 44.011 A 25.724 25.724 0 0 1 13.867 42.92 A 17.317 17.317 0 0 1 11.55 40.493 A 15.204 15.204 0 0 1 10.791 39.429 A 18.796 18.796 0 0 1 9.047 36.064 A 17.244 17.244 0 0 1 8.862 35.571 Q 8.154 33.594 7.837 31.616 A 30.249 30.249 0 0 1 7.527 28.978 A 25.942 25.942 0 0 1 7.471 27.832 A 72.169 72.169 0 0 0 5.847 28.503 A 53.509 53.509 0 0 0 4.395 29.15 Q 3.455 29.587 2.699 29.931 A 154.816 154.816 0 0 1 2.051 30.225 Z M 426.953 3.613 L 453.027 50.488 Q 452.344 46.143 452.002 41.943 A 102.883 102.883 0 0 1 451.66 33.594 Q 451.66 24.561 453.442 16.162 Q 455.225 7.764 459.131 0 A 50.827 50.827 0 0 0 485.156 9.326 Q 478.125 18.115 474.487 28.076 A 60.906 60.906 0 0 0 470.922 46.314 A 70.456 70.456 0 0 0 470.85 49.512 A 77.536 77.536 0 0 0 471.652 60.481 A 85.855 85.855 0 0 0 471.826 61.646 Q 472.803 67.871 474.854 74.512 Q 470.801 74.658 466.602 75.293 Q 462.988 75.83 458.643 77.002 A 42.543 42.543 0 0 0 450.146 80.322 A 94.632 94.632 0 0 0 447.021 72.339 Q 445.313 68.506 443.506 65.088 A 118.409 118.409 0 0 0 440.896 60.402 A 101.751 101.751 0 0 0 439.868 58.691 A 198.744 198.744 0 0 0 438.08 55.835 A 157.441 157.441 0 0 0 436.377 53.223 A 113.596 113.596 0 0 0 431.52 46.594 A 92.312 92.312 0 0 0 428.369 42.822 A 0.46 0.46 0 0 1 428.342 42.792 Q 428.298 42.74 428.229 42.637 A 4.429 4.429 0 0 1 428.223 42.627 A 2.484 2.484 0 0 1 428.101 42.495 A 2.991 2.991 0 0 1 428.027 42.407 A 1.33 1.33 0 0 1 427.948 42.296 Q 427.912 42.24 427.876 42.173 A 2.63 2.63 0 0 1 427.832 42.09 A 120.67 120.67 0 0 1 428.125 50.391 Q 428.125 65.332 424.268 79.834 Q 415.771 76.807 406.738 76.807 Q 403.857 76.807 400.903 77.1 A 54.029 54.029 0 0 0 394.971 78.027 A 65.598 65.598 0 0 0 405.591 59.375 Q 409.229 49.414 409.229 37.695 A 79.488 79.488 0 0 0 408.82 29.752 A 85.31 85.31 0 0 0 408.813 29.687 A 93.87 93.87 0 0 0 407.67 21.825 A 102.807 102.807 0 0 0 407.568 21.289 Q 404.395 18.652 400.732 15.918 A 229.701 229.701 0 0 0 395.443 12.089 A 269.829 269.829 0 0 0 392.871 10.303 A 56.383 56.383 0 0 0 398.852 10.827 Q 399.666 10.853 400.467 10.853 A 47.884 47.884 0 0 0 401.587 10.84 A 45.741 45.741 0 0 0 409.863 9.888 Q 413.965 9.033 418.164 7.471 A 83.033 83.033 0 0 0 423.566 5.231 A 101.737 101.737 0 0 0 426.953 3.613 Z M 617.676 55.42 L 621.094 46.924 Q 622.754 42.773 624.292 38.916 Q 625.83 35.059 627.173 31.323 Q 628.516 27.588 629.614 23.804 Q 630.713 20.02 631.592 15.918 A 36.357 36.357 0 0 0 638.77 18.799 Q 642.432 19.824 645.874 20.288 A 64.205 64.205 0 0 0 649.965 20.712 A 52.229 52.229 0 0 0 652.344 20.825 A 294.286 294.286 0 0 0 654.498 20.87 Q 656.195 20.898 657.568 20.898 A 80.22 80.22 0 0 0 655.478 25.545 A 66.447 66.447 0 0 0 654.443 28.223 A 69.482 69.482 0 0 0 653.047 32.503 A 58.036 58.036 0 0 0 652.393 34.961 Q 651.611 38.184 651.294 41.162 Q 650.977 44.141 650.977 46.826 A 42.122 42.122 0 0 0 651.335 52.436 A 33.388 33.388 0 0 0 652.124 56.47 A 43.38 43.38 0 0 0 653.816 61.627 A 36.426 36.426 0 0 0 655.078 64.429 A 39.468 39.468 0 0 0 657.982 69.318 A 34.567 34.567 0 0 0 659.155 70.898 A 63.471 63.471 0 0 0 661.843 74.096 A 51.117 51.117 0 0 0 663.672 76.025 A 34.519 34.519 0 0 1 661.798 75.977 A 26.734 26.734 0 0 1 660.083 75.83 A 27.172 27.172 0 0 0 658.142 75.672 A 35.064 35.064 0 0 0 656.494 75.635 Q 654.395 75.635 652.393 75.903 A 38.046 38.046 0 0 0 648.445 76.653 A 41.532 41.532 0 0 0 648.315 76.685 A 46.463 46.463 0 0 0 645.381 77.516 A 54.507 54.507 0 0 0 643.994 77.979 Q 641.748 78.76 639.16 79.834 Q 636.914 74.023 635.547 68.213 A 90.213 90.213 0 0 1 633.594 56.592 A 67.017 67.017 0 0 0 629.492 66.699 A 60.499 60.499 0 0 0 627.524 75.049 A 70.402 70.402 0 0 0 627.1 78.027 A 26.661 26.661 0 0 0 626.781 78.03 Q 626.262 78.036 625.279 78.06 A 381.877 381.877 0 0 0 624.634 78.076 A 60.139 60.139 0 0 0 623.107 78.137 Q 621.738 78.207 620.044 78.345 A 68.157 68.157 0 0 0 617.206 78.638 A 89.598 89.598 0 0 0 614.111 79.077 Q 610.889 79.59 607.666 80.518 A 77.556 77.556 0 0 0 606.12 71.135 A 67.841 67.841 0 0 0 605.371 68.188 A 66.167 66.167 0 0 0 601.27 57.227 A 81.225 81.225 0 0 1 599.268 68.506 A 95.06 95.06 0 0 1 595.654 79.834 A 53.944 53.944 0 0 0 581.847 76.045 A 48.189 48.189 0 0 0 575.586 75.635 Q 574.072 75.635 571.973 75.806 Q 569.873 75.977 567.773 76.123 A 51.961 51.961 0 0 0 577.797 62.965 A 48.614 48.614 0 0 0 579.419 59.595 A 48.217 48.217 0 0 0 583.118 45.029 A 59.067 59.067 0 0 0 583.398 39.209 A 37.37 37.37 0 0 0 583.36 37.555 A 45.277 45.277 0 0 0 583.301 36.499 Q 583.203 35.059 583.057 33.496 Q 579.395 30.029 575.269 26.709 Q 571.143 23.389 566.553 19.922 A 3241.65 3241.65 0 0 1 567.665 20.134 Q 568.902 20.37 570.509 20.677 A 10418.633 10418.633 0 0 1 572.046 20.972 A 33.472 33.472 0 0 0 575.064 21.398 Q 576.692 21.558 578.544 21.608 A 64.196 64.196 0 0 0 580.273 21.631 A 48.606 48.606 0 0 0 584.644 21.423 A 66.196 66.196 0 0 0 589.453 20.801 A 42.853 42.853 0 0 0 595.296 19.388 A 56.036 56.036 0 0 0 600.098 17.627 A 82.755 82.755 0 0 1 603.308 22.412 A 109.65 109.65 0 0 1 606.494 27.881 Q 609.229 32.861 612.231 39.819 Q 615.234 46.777 617.676 55.42 Z M 233.667 51.563 A 11.484 11.484 0 0 0 233.496 49.902 A 53.758 53.758 0 0 1 230.371 52.881 Q 228.76 54.297 227.1 55.518 Q 224.414 52.051 220.874 49.438 A 49.803 49.803 0 0 0 213.452 44.897 A 68.868 68.868 0 0 0 205.688 41.602 A 131.037 131.037 0 0 0 201.947 40.344 A 100.489 100.489 0 0 0 198.486 39.307 A 11.168 11.168 0 0 1 195.605 37.939 A 10.503 10.503 0 0 1 194.454 37.004 A 14.315 14.315 0 0 1 193.384 35.889 A 6.189 6.189 0 0 1 192.451 34.436 A 7.789 7.789 0 0 1 191.895 32.715 A 269.605 269.605 0 0 1 195.508 32.446 A 50.887 50.887 0 0 1 196.19 32.405 A 57.015 57.015 0 0 1 199.268 32.324 A 67.572 67.572 0 0 1 204.506 32.533 A 82.891 82.891 0 0 1 213.184 33.691 A 69.974 69.974 0 0 1 220.289 35.413 A 90.776 90.776 0 0 1 228.809 38.428 A 25.718 25.718 0 0 1 228.734 37.954 A 29.752 29.752 0 0 1 228.564 36.572 A 19.245 19.245 0 0 1 228.538 36.334 Q 228.46 35.591 228.418 34.668 A 44.926 44.926 0 0 1 228.397 34.125 A 51.15 51.15 0 0 1 228.369 32.422 Q 228.369 30.566 228.54 28.394 Q 228.711 26.221 229.15 23.975 A 27.573 27.573 0 0 1 230.396 19.58 Q 231.201 17.432 232.471 15.625 Q 227.588 16.406 223.315 16.797 Q 219.043 17.187 215.82 17.383 Q 212.061 17.578 208.887 17.627 A 95.553 95.553 0 0 0 202.96 17.997 A 80.468 80.468 0 0 0 188.867 20.557 A 62.848 62.848 0 0 0 187.877 20.847 A 68.828 68.828 0 0 0 180.884 23.389 A 41.562 41.562 0 0 0 173.291 27.588 A 33.679 33.679 0 0 0 166.87 33.447 A 24.189 24.189 0 0 0 166.303 34.142 A 25.619 25.619 0 0 0 162.402 41.211 Q 163.184 40.82 164.209 40.332 A 911.427 911.427 0 0 1 164.796 40.071 Q 165.109 39.932 165.46 39.777 A 1876.75 1876.75 0 0 1 166.357 39.38 Q 167.032 39.082 167.817 38.776 A 49.644 49.644 0 0 1 169.287 38.232 A 21.212 21.212 0 0 0 169.339 38.756 A 18.657 18.657 0 0 0 170.898 44.482 A 12.491 12.491 0 0 0 172.607 47.205 A 15.582 15.582 0 0 0 175.098 49.609 A 22.227 22.227 0 0 0 180.273 52.661 A 56.731 56.731 0 0 0 186.133 54.761 A 147.295 147.295 0 0 0 192.261 56.445 A 81.633 81.633 0 0 1 192.647 56.544 A 74.83 74.83 0 0 1 198.218 58.203 A 38.785 38.785 0 0 1 198.75 58.389 A 34.979 34.979 0 0 1 203.564 60.522 A 16.141 16.141 0 0 1 207.91 63.916 A 39.051 39.051 0 0 1 203.052 64.673 Q 200.635 64.893 198.291 64.893 A 53.277 53.277 0 0 1 197.761 64.89 Q 196.094 64.873 193.86 64.755 A 162.267 162.267 0 0 1 192.041 64.648 Q 188.232 64.404 183.472 63.574 A 82.042 82.042 0 0 1 179.18 62.703 A 103.71 103.71 0 0 1 173.291 61.157 A 71.044 71.044 0 0 1 169.88 60.063 A 82.578 82.578 0 0 1 162.207 56.934 A 66.554 66.554 0 0 1 164.026 60.083 A 90.863 90.863 0 0 1 165.869 63.672 A 102.18 102.18 0 0 1 166.619 65.279 Q 167.258 66.68 167.946 68.286 A 199.197 199.197 0 0 1 169.312 71.558 Q 171.191 76.172 172.9 81.934 A 24.902 24.902 0 0 1 173.862 81.515 A 21.757 21.757 0 0 1 179.077 80.078 A 39.724 39.724 0 0 1 184.658 79.683 A 39.382 39.382 0 0 1 185.278 79.687 A 79.144 79.144 0 0 1 191.479 80.029 Q 194.58 80.322 197.607 80.322 Q 202.051 80.322 206.445 79.443 A 46.009 46.009 0 0 0 214.844 76.929 A 39.219 39.219 0 0 0 222.314 72.9 Q 225.781 70.508 228.296 67.505 A 24.32 24.32 0 0 0 232.251 60.913 Q 233.691 57.324 233.691 53.223 A 56.467 56.467 0 0 0 233.667 51.562 Z M 308.691 20.801 L 312.061 20.801 A 76.39 76.39 0 0 0 307.679 30.823 A 70.545 70.545 0 0 0 307.446 31.494 Q 305.615 36.865 304.785 42.529 A 1943.78 1943.78 0 0 1 309.204 41.553 Q 311.426 41.064 313.672 40.527 A 68.521 68.521 0 0 0 312.801 50.623 A 76.02 76.02 0 0 0 312.793 51.709 Q 312.793 54.492 313.013 57.3 A 65.793 65.793 0 0 0 313.672 62.793 A 585.806 585.806 0 0 0 310.252 62.66 A 522.168 522.168 0 0 0 309.155 62.622 Q 306.982 62.549 304.785 62.402 A 86.928 86.928 0 0 0 306.177 69.629 A 74.694 74.694 0 0 0 308.301 76.904 A 303.184 303.184 0 0 0 307.33 76.871 Q 306.567 76.846 305.957 76.831 A 298.545 298.545 0 0 1 305.145 76.81 Q 304.649 76.796 304.224 76.782 A 257.458 257.458 0 0 1 303.497 76.758 A 197.902 197.902 0 0 1 302.832 76.733 A 33.029 33.029 0 0 0 301.563 76.709 Q 297.314 76.709 293.042 77.466 A 79.017 79.017 0 0 0 288.568 78.4 A 106.217 106.217 0 0 0 283.691 79.688 A 207.292 207.292 0 0 1 282.861 69.556 Q 282.568 64.453 282.568 59.131 A 113.919 113.919 0 0 1 275.439 57.275 A 337.878 337.878 0 0 1 268.457 55.127 Q 268.359 60.84 268.237 66.553 A 547.127 547.127 0 0 1 267.871 78.027 Q 263.428 77.246 260.01 76.88 Q 256.592 76.514 253.271 76.514 A 53.395 53.395 0 0 0 247.831 76.812 Q 243.59 77.248 238.574 78.32 A 100.407 100.407 0 0 0 244.263 60.986 Q 246.289 52.148 246.289 42.725 Q 246.289 36.963 245.508 31.177 A 90.403 90.403 0 0 0 243.658 21.565 A 102.17 102.17 0 0 0 243.066 19.287 Q 246.191 20.166 249.219 20.85 Q 252.246 21.533 255.273 22.021 Q 258.301 22.51 261.426 22.778 Q 264.551 23.047 267.871 23.096 A 1059.265 1059.265 0 0 1 268.457 47.998 A 716.091 716.091 0 0 0 275.757 47.192 A 378.316 378.316 0 0 0 282.959 46.289 Q 283.496 39.014 284.668 31.689 A 128.698 128.698 0 0 1 287.724 17.742 A 141.005 141.005 0 0 1 287.988 16.797 A 66.666 66.666 0 0 0 291.362 18.058 A 54.52 54.52 0 0 0 293.286 18.677 Q 295.801 19.434 298.291 19.897 A 51.866 51.866 0 0 0 303.32 20.581 A 59.381 59.381 0 0 0 306.95 20.779 A 69.535 69.535 0 0 0 308.691 20.801 Z M 562.061 58.203 Q 560.01 59.18 558.008 60.083 A 112.263 112.263 0 0 1 553.955 61.816 A 129.451 129.451 0 0 0 563.867 77.1 A 69.585 69.585 0 0 0 552.02 78.083 A 62.946 62.946 0 0 0 549.414 78.589 A 70.098 70.098 0 0 0 538.977 81.743 A 81.183 81.183 0 0 0 535.449 83.203 A 8.686 8.686 0 0 0 536.108 80.591 A 30.468 30.468 0 0 0 536.23 77.832 Q 536.23 75.488 535.791 72.681 A 45.949 45.949 0 0 0 535.07 69.066 A 54.905 54.905 0 0 0 534.473 66.797 A 49.998 49.998 0 0 1 530.371 67.212 A 67.404 67.404 0 0 1 526.367 67.334 A 55.267 55.267 0 0 1 519.556 66.919 A 35.705 35.705 0 0 1 513.135 65.527 Q 512.305 69.141 511.621 72.925 A 821.657 821.657 0 0 0 510.275 80.588 A 891.932 891.932 0 0 0 510.254 80.713 Q 507.764 79.443 504.785 78.418 A 49.582 49.582 0 0 0 502.409 77.71 Q 500.783 77.267 498.901 76.855 A 32.162 32.162 0 0 0 493.224 76.149 A 36.592 36.592 0 0 0 491.846 76.123 A 42.429 42.429 0 0 0 487.512 76.354 A 51.41 51.41 0 0 0 485.107 76.66 Q 481.543 77.197 477.246 78.418 A 107.607 107.607 0 0 0 483.472 71.753 Q 486.377 68.359 488.794 65.21 A 148.051 148.051 0 0 0 491.077 62.158 A 114.198 114.198 0 0 0 493.091 59.302 Q 494.971 56.543 496.24 54.492 Q 494.824 52.783 493.628 50.83 A 44.767 44.767 0 0 1 491.902 47.736 A 50.774 50.774 0 0 1 491.357 46.631 Q 493.311 47.607 495.215 48.413 Q 497.119 49.219 498.975 49.902 A 232.049 232.049 0 0 1 503.711 41.943 Q 506.201 37.939 509.033 34.131 A 39.836 39.836 0 0 0 508.46 32.817 Q 508.154 32.148 507.792 31.409 A 70.963 70.963 0 0 0 507.544 30.908 A 117.503 117.503 0 0 0 506.107 28.13 A 133.075 133.075 0 0 0 505.591 27.173 Q 504.541 25.244 503.369 23.34 A 79.407 79.407 0 0 0 501.923 21.074 A 65.308 65.308 0 0 0 501.074 19.824 Q 505.762 21.094 510.474 21.826 A 92.477 92.477 0 0 0 519.873 22.803 A 54.341 54.341 0 0 1 525.488 18.774 A 48.092 48.092 0 0 1 531.641 15.527 Q 530.615 17.236 529.639 19.043 A 129.376 129.376 0 0 0 527.734 22.705 Q 530.176 22.461 532.666 22.144 A 71.983 71.983 0 0 0 536.511 21.544 A 81.993 81.993 0 0 0 537.842 21.289 A 211.332 211.332 0 0 0 541.797 34.131 A 222.472 222.472 0 0 0 546.436 46.436 A 162.763 162.763 0 0 0 550.708 43.921 A 65.467 65.467 0 0 0 554.932 41.113 A 107.39 107.39 0 0 0 556.867 47.054 A 86.846 86.846 0 0 0 558.203 50.537 A 56.533 56.533 0 0 0 560.289 55.078 A 44.676 44.676 0 0 0 562.061 58.203 Z M 820.752 58.203 Q 818.701 59.18 816.699 60.083 A 112.263 112.263 0 0 1 812.646 61.816 A 129.451 129.451 0 0 0 822.559 77.1 A 69.585 69.585 0 0 0 810.711 78.083 A 62.946 62.946 0 0 0 808.105 78.589 A 70.098 70.098 0 0 0 797.668 81.743 A 81.183 81.183 0 0 0 794.141 83.203 A 8.686 8.686 0 0 0 794.8 80.591 A 30.468 30.468 0 0 0 794.922 77.832 Q 794.922 75.488 794.482 72.681 A 45.949 45.949 0 0 0 793.761 69.066 A 54.905 54.905 0 0 0 793.164 66.797 A 49.998 49.998 0 0 1 789.063 67.212 A 67.404 67.404 0 0 1 785.059 67.334 A 55.267 55.267 0 0 1 778.247 66.919 A 35.705 35.705 0 0 1 771.826 65.527 Q 770.996 69.141 770.313 72.925 A 821.657 821.657 0 0 0 768.967 80.588 A 891.932 891.932 0 0 0 768.945 80.713 Q 766.455 79.443 763.477 78.418 A 49.582 49.582 0 0 0 761.101 77.71 Q 759.474 77.267 757.593 76.855 A 32.162 32.162 0 0 0 751.916 76.149 A 36.592 36.592 0 0 0 750.537 76.123 A 42.429 42.429 0 0 0 746.203 76.354 A 51.41 51.41 0 0 0 743.799 76.66 Q 740.234 77.197 735.938 78.418 A 107.607 107.607 0 0 0 742.163 71.753 Q 745.068 68.359 747.485 65.21 A 148.051 148.051 0 0 0 749.768 62.158 A 114.198 114.198 0 0 0 751.782 59.302 Q 753.662 56.543 754.932 54.492 Q 753.516 52.783 752.319 50.83 A 44.767 44.767 0 0 1 750.594 47.736 A 50.774 50.774 0 0 1 750.049 46.631 Q 752.002 47.607 753.906 48.413 Q 755.811 49.219 757.666 49.902 A 232.049 232.049 0 0 1 762.402 41.943 Q 764.893 37.939 767.725 34.131 A 39.836 39.836 0 0 0 767.151 32.817 Q 766.845 32.148 766.483 31.409 A 70.963 70.963 0 0 0 766.235 30.908 A 117.503 117.503 0 0 0 764.798 28.13 A 133.075 133.075 0 0 0 764.282 27.173 Q 763.232 25.244 762.061 23.34 A 79.407 79.407 0 0 0 760.615 21.074 A 65.308 65.308 0 0 0 759.766 19.824 Q 764.453 21.094 769.165 21.826 A 92.477 92.477 0 0 0 778.564 22.803 A 54.341 54.341 0 0 1 784.18 18.774 A 48.092 48.092 0 0 1 790.332 15.527 Q 789.307 17.236 788.33 19.043 A 129.376 129.376 0 0 0 786.426 22.705 Q 788.867 22.461 791.357 22.144 A 71.983 71.983 0 0 0 795.203 21.544 A 81.993 81.993 0 0 0 796.533 21.289 A 211.332 211.332 0 0 0 800.488 34.131 A 222.472 222.472 0 0 0 805.127 46.436 A 162.763 162.763 0 0 0 809.399 43.921 A 65.467 65.467 0 0 0 813.623 41.113 A 107.39 107.39 0 0 0 815.558 47.054 A 86.846 86.846 0 0 0 816.895 50.537 A 56.533 56.533 0 0 0 818.98 55.078 A 44.676 44.676 0 0 0 820.752 58.203 Z M 112.451 62.598 L 112.695 61.133 Q 116.113 62.012 118.066 62.012 Q 120.996 62.012 123.291 60.937 A 13.309 13.309 0 0 0 127.295 58.081 A 17.549 17.549 0 0 0 129.912 54.532 A 19.791 19.791 0 0 0 130.225 53.955 Q 131.445 51.611 132.178 49.072 Q 132.91 46.533 133.252 43.97 A 39.396 39.396 0 0 0 133.546 40.87 A 32.93 32.93 0 0 0 133.594 39.111 A 18.765 18.765 0 0 0 133.496 37.252 Q 133.369 35.988 133.081 34.546 A 49.098 49.098 0 0 0 132.297 31.246 A 58.611 58.611 0 0 0 131.689 29.175 A 76.555 76.555 0 0 0 129.663 23.511 Q 128.516 20.654 127.197 18.018 A 49.104 49.104 0 0 0 129.573 18.646 A 62.149 62.149 0 0 0 131.592 19.092 Q 133.984 19.58 136.475 19.946 A 73.517 73.517 0 0 0 141.479 20.508 A 64.457 64.457 0 0 0 145.119 20.691 A 55.915 55.915 0 0 0 146.289 20.703 A 38.639 38.639 0 0 0 152.075 20.264 Q 154.98 19.824 157.764 18.604 A 133.309 133.309 0 0 1 157.217 30.99 Q 156.514 38.512 154.907 44.897 A 64.437 64.437 0 0 1 151.747 54.424 A 46.627 46.627 0 0 1 146.411 63.892 A 36.088 36.088 0 0 1 132.422 75.415 A 40.787 40.787 0 0 1 121.577 78.656 A 54.042 54.042 0 0 1 113.086 79.297 A 51.372 51.372 0 0 1 107.227 78.955 Q 104.248 78.613 101.172 77.93 A 7.877 7.877 0 0 0 101.743 77.612 Q 102.078 77.408 102.441 77.148 Q 102.844 76.88 103.328 76.531 A 44.402 44.402 0 0 0 103.784 76.196 A 21.852 21.852 0 0 0 104.659 75.511 A 27.799 27.799 0 0 0 105.371 74.902 A 24.113 24.113 0 0 1 96.289 69.702 A 30.03 30.03 0 0 1 90.536 62.534 A 34.912 34.912 0 0 1 89.673 60.962 A 42.367 42.367 0 0 1 86.852 53.989 A 52.485 52.485 0 0 1 85.645 49.292 A 64.513 64.513 0 0 1 84.411 39.879 A 76.971 76.971 0 0 1 84.277 35.303 A 77.037 77.037 0 0 1 84.296 33.582 A 56.384 56.384 0 0 1 84.351 32.031 Q 84.424 30.566 84.57 29.102 A 78.635 78.635 0 0 1 84.831 26.836 A 89.191 89.191 0 0 1 84.937 26.05 Q 85.156 24.463 85.449 22.412 A 249.124 249.124 0 0 0 86.658 22.51 A 296.906 296.906 0 0 0 87.939 22.607 A 39.237 39.237 0 0 0 88.988 22.684 Q 89.524 22.716 90.122 22.739 A 67.942 67.942 0 0 0 90.527 22.754 Q 91.992 22.803 93.555 22.803 A 66.02 66.02 0 0 0 95.703 22.766 A 85.962 85.962 0 0 0 98.047 22.656 A 66.184 66.184 0 0 0 101.531 22.351 A 78.186 78.186 0 0 0 103.198 22.144 A 57.196 57.196 0 0 0 107.373 21.416 A 65.241 65.241 0 0 0 108.813 21.094 A 46.98 46.98 0 0 0 113.954 19.561 A 51.905 51.905 0 0 0 114.697 19.287 A 295.918 295.918 0 0 0 113 23.26 A 219.163 219.163 0 0 0 111.523 26.88 A 79.488 79.488 0 0 0 110.013 30.999 A 64.664 64.664 0 0 0 109.253 33.423 Q 108.35 36.523 107.91 39.429 A 39.285 39.285 0 0 0 107.471 45.312 A 36.494 36.494 0 0 0 107.972 51.466 A 30.905 30.905 0 0 0 108.691 54.663 A 25.978 25.978 0 0 0 112.451 62.598 Z M 675.977 80.713 L 676.758 79.297 Q 675.244 79.785 673.682 80.225 A 57.511 57.511 0 0 0 670.557 81.201 Q 673.193 73.975 675.098 66.748 Q 677.002 59.521 678.076 52.1 A 46.313 46.313 0 0 1 674.419 49.795 A 37.9 37.9 0 0 1 672.412 48.291 Q 669.922 46.289 668.262 44.434 Q 670.752 45.117 673.34 45.703 A 189.599 189.599 0 0 0 678.662 46.826 A 530.944 530.944 0 0 0 678.931 42.212 A 85.947 85.947 0 0 0 679.053 37.598 L 679.053 36.816 Q 676.318 37.695 673.73 38.672 Q 671.143 39.648 668.652 40.723 A 46.123 46.123 0 0 0 669.434 37.705 A 37.945 37.945 0 0 0 669.775 35.986 A 25.763 25.763 0 0 0 670.164 31.861 A 23.733 23.733 0 0 0 670.166 31.592 A 24.136 24.136 0 0 0 669.287 25.073 Q 668.408 21.924 666.748 19.189 A 466.581 466.581 0 0 1 671.685 18.523 Q 674.031 18.22 676.13 17.976 A 281.688 281.688 0 0 1 676.196 17.969 A 260.502 260.502 0 0 1 680.267 17.529 A 205.146 205.146 0 0 1 684.033 17.188 A 146.499 146.499 0 0 1 688.378 16.898 A 119.969 119.969 0 0 1 690.82 16.797 Q 693.994 16.699 697.168 16.699 A 141.354 141.354 0 0 1 699.841 16.726 Q 701.444 16.756 703.247 16.821 A 107.828 107.828 0 0 1 708.488 17.142 A 121.622 121.622 0 0 1 710.303 17.31 A 71.147 71.147 0 0 1 717.627 18.433 A 45.233 45.233 0 0 1 723.304 19.985 A 40.722 40.722 0 0 1 724.536 20.435 A 26.756 26.756 0 0 1 728.95 22.593 A 23.619 23.619 0 0 1 730.371 23.535 A 14.178 14.178 0 0 1 734.473 28.027 L 738.477 25.83 A 28.04 28.04 0 0 1 738.677 27.681 A 30.747 30.747 0 0 1 738.696 27.954 A 33.454 33.454 0 0 1 738.759 29.28 A 27.922 27.922 0 0 1 738.77 30.029 Q 738.77 33.105 737.939 36.035 Q 737.109 38.965 735.596 41.675 A 31.305 31.305 0 0 1 731.982 46.826 A 35.631 35.631 0 0 1 727.344 51.318 A 21.52 21.52 0 0 1 729.596 52.661 A 16.377 16.377 0 0 1 731.47 54.15 A 19.714 19.714 0 0 1 733.179 55.939 A 15.895 15.895 0 0 1 734.253 57.373 A 17.795 17.795 0 0 1 735.301 59.167 A 13.926 13.926 0 0 1 735.937 60.62 A 25.915 25.915 0 0 1 736.389 61.948 Q 736.641 62.762 736.792 63.477 Q 737.055 64.718 737.107 65.516 A 6.936 6.936 0 0 1 737.109 65.552 A 368.623 368.623 0 0 1 737.121 65.741 Q 737.153 66.274 737.157 66.382 A 0.711 0.711 0 0 1 737.158 66.406 A 13.519 13.519 0 0 1 736.623 69.863 A 11.547 11.547 0 0 1 735.62 72.241 A 14.759 14.759 0 0 1 732.351 76.196 A 17.238 17.238 0 0 1 731.665 76.758 A 23.39 23.39 0 0 1 728.188 78.98 A 28.828 28.828 0 0 1 725.781 80.103 A 41.02 41.02 0 0 1 720.635 81.825 A 48.139 48.139 0 0 1 718.457 82.349 A 69.968 69.968 0 0 1 711.772 83.447 A 78.54 78.54 0 0 1 710.156 83.618 Q 705.811 84.033 701.367 84.033 A 107.292 107.292 0 0 1 694.482 83.813 A 96.967 96.967 0 0 1 687.793 83.154 Q 684.521 82.715 681.543 82.104 A 67.472 67.472 0 0 1 677.972 81.275 A 56.536 56.536 0 0 1 675.977 80.713 Z M 348.975 18.408 Q 347.559 26.562 346.875 34.888 A 205.471 205.471 0 0 0 346.191 51.709 Q 346.191 58.105 346.558 64.404 A 161.612 161.612 0 0 0 347.754 76.807 A 46.522 46.522 0 0 1 344.092 76.66 A 45.483 45.483 0 0 0 342.139 76.55 A 60.281 60.281 0 0 0 339.99 76.514 A 71.38 71.38 0 0 0 332.796 76.888 A 78.949 78.949 0 0 0 331.738 77.002 Q 327.49 77.49 322.656 78.418 Q 324.023 71.533 324.854 64.307 Q 325.684 57.08 325.684 49.609 A 122.912 122.912 0 0 0 325.049 37.134 A 109.055 109.055 0 0 0 323.047 24.707 Q 326.27 24.365 329.297 23.804 Q 332.324 23.242 335.449 22.461 Q 338.574 21.68 341.895 20.679 Q 345.215 19.678 348.975 18.408 Z M 711.572 34.229 L 715.771 33.594 A 17.33 17.33 0 0 0 711.841 32.104 A 17.627 17.627 0 0 0 708.837 31.642 A 21.012 21.012 0 0 0 707.373 31.592 A 51.894 51.894 0 0 0 703.442 31.738 A 92.604 92.604 0 0 0 699.974 32.069 A 102.099 102.099 0 0 0 699.463 32.129 A 418.506 418.506 0 0 0 699.243 39.917 A 1136.362 1136.362 0 0 1 699.072 47.607 A 19.022 19.022 0 0 0 703.261 46.342 A 14.388 14.388 0 0 0 707.52 43.506 A 11.969 11.969 0 0 0 710.08 39.768 Q 710.812 38.141 711.243 36.133 A 25.024 25.024 0 0 0 711.572 34.229 Z M 699.072 59.326 A 43.43 43.43 0 0 0 704.15 59.619 Q 708.008 59.619 711.743 58.789 A 37.03 37.03 0 0 0 718.945 56.396 Q 719.128 57.281 719.197 57.995 A 8.326 8.326 0 0 1 719.238 58.789 Q 719.238 61.426 717.993 63.232 Q 716.748 65.039 714.819 66.138 A 13.686 13.686 0 0 1 714.207 66.466 A 14.815 14.815 0 0 1 710.571 67.725 A 24.384 24.384 0 0 1 709.108 67.987 A 20.247 20.247 0 0 1 706.152 68.213 A 25.227 25.227 0 0 1 704.99 68.185 A 30.575 30.575 0 0 1 702.93 68.018 Q 701.221 67.822 699.268 67.187 Q 699.17 65.234 699.121 63.306 A 145.153 145.153 0 0 1 699.11 62.822 A 159.159 159.159 0 0 1 699.072 59.326 Z M 529.346 53.027 A 144.19 144.19 0 0 0 525.61 45.337 A 166.685 166.685 0 0 0 521.24 37.5 A 187.94 187.94 0 0 0 517.194 49.622 A 215.253 215.253 0 0 0 515.967 53.906 A 15.689 15.689 0 0 0 517.7 54.004 L 519.434 54.004 Q 521.924 54.004 524.39 53.784 A 40.57 40.57 0 0 0 529.346 53.027 Z M 788.037 53.027 A 144.19 144.19 0 0 0 784.302 45.337 A 166.685 166.685 0 0 0 779.932 37.5 A 187.94 187.94 0 0 0 775.885 49.622 A 215.253 215.253 0 0 0 774.658 53.906 A 15.689 15.689 0 0 0 776.392 54.004 L 778.125 54.004 Q 780.615 54.004 783.081 53.784 A 40.57 40.57 0 0 0 788.037 53.027 Z" vector-effect="non-scaling-stroke"/></g></svg>